<?xml version="1.0" encoding="UTF-8" standalone="no"?>
<!DOCTYPE svg PUBLIC "-//W3C//DTD SVG 1.1//EN" "http://www.w3.org/Graphics/SVG/1.1/DTD/svg11.dtd">
<svg version="1.1" xmlns="http://www.w3.org/2000/svg" xmlns:xlink="http://www.w3.org/1999/xlink" preserveAspectRatio="xMidYMid meet" viewBox="129.9900344888889 6.679999999999869 362.1433941333333 508.32" width="358.14" height="504.32"><defs><path d="M328.93 7.77L330.27 7.88L331.6 8.04L332.91 8.24L334.21 8.48L335.49 8.77L336.76 9.09L338.01 9.46L339.24 9.87L340.46 10.31L341.65 10.79L342.83 11.31L343.98 11.87L345.12 12.46L346.23 13.09L347.32 13.75L348.39 14.44L349.43 15.17L350.45 15.93L351.44 16.72L352.41 17.55L353.35 18.4L354.26 19.28L355.15 20.19L356 21.13L356.83 22.09L357.62 23.09L358.38 24.1L359.11 25.14L359.81 26.21L360.48 27.3L361.11 28.41L361.7 29.55L362.26 30.7L362.79 31.88L363.27 33.07L363.72 34.29L364.13 35.52L364.5 36.77L364.99 36.42L365.49 36.07L366 35.74L366.51 35.41L367.02 35.08L367.54 34.77L368.07 34.46L368.6 34.17L369.13 33.87L369.67 33.59L370.22 33.32L370.77 33.05L371.32 32.79L371.88 32.54L372.44 32.3L373.01 32.07L373.58 31.84L374.16 31.63L374.74 31.42L375.33 31.22L375.91 31.03L376.51 30.85L377.1 30.68L377.7 30.51L378.31 30.36L378.91 30.22L379.53 30.08L380.14 29.96L380.76 29.84L381.38 29.73L382 29.64L382.63 29.55L383.26 29.47L383.9 29.41L384.53 29.35L385.17 29.3L385.81 29.27L386.46 29.24L387.11 29.22L387.76 29.22L389.4 29.25L391.02 29.35L392.63 29.52L394.21 29.74L395.78 30.03L397.32 30.38L398.84 30.79L400.34 31.25L401.8 31.77L403.25 32.35L404.66 32.98L406.05 33.67L407.4 34.4L408.72 35.19L410.01 36.02L411.26 36.9L412.48 37.83L413.66 38.8L414.8 39.82L415.9 40.88L416.96 41.98L417.98 43.12L418.95 44.3L419.88 45.52L420.76 46.77L421.59 48.06L422.38 49.38L423.11 50.73L423.8 52.11L424.43 53.53L425.01 54.97L425.53 56.44L425.99 57.93L426.4 59.45L426.75 61L427.04 62.56L427.26 64.15L427.43 65.75L427.52 67.38L427.56 69.02L427.56 94.32L428.03 94.01L428.51 93.71L428.99 93.42L429.47 93.13L429.96 92.85L430.45 92.58L430.95 92.31L431.45 92.05L431.96 91.79L432.47 91.55L432.98 91.31L433.5 91.07L434.02 90.85L434.54 90.63L435.07 90.41L435.6 90.21L436.14 90.01L436.68 89.82L437.22 89.64L437.76 89.47L438.31 89.3L438.87 89.14L439.42 88.99L439.98 88.85L440.55 88.71L441.11 88.58L441.68 88.46L442.25 88.35L442.83 88.25L443.4 88.16L443.98 88.07L444.57 87.99L445.15 87.93L445.74 87.87L446.34 87.82L446.93 87.78L447.53 87.74L448.13 87.72L448.73 87.7L449.33 87.7L450.97 87.73L452.6 87.83L454.2 88L455.79 88.22L457.35 88.51L458.9 88.86L460.41 89.26L461.91 89.73L463.38 90.25L464.82 90.83L466.23 91.46L467.62 92.14L468.97 92.88L470.29 93.67L471.58 94.5L472.83 95.38L474.05 96.31L475.22 97.28L476.36 98.3L477.46 99.36L478.52 100.46L479.54 101.6L480.51 102.78L481.44 104L482.32 105.25L483.15 106.54L483.94 107.86L484.67 109.21L485.36 110.6L485.99 112.01L486.56 113.45L487.08 114.92L487.55 116.42L487.96 117.94L488.3 119.48L488.59 121.05L488.82 122.63L488.98 124.24L489.08 125.86L489.11 127.5L489.11 349.87L489.13 349.87L489.13 349.88L489.13 349.89L489.13 349.9L489.13 349.91L489.13 349.93L489.12 349.95L489.12 349.96L489.12 349.97L489.12 349.97L489.12 349.98L489.12 420.66L489.05 424.43L488.82 428.15L488.45 431.84L487.93 435.48L487.27 439.07L486.47 442.61L485.53 446.1L484.47 449.53L483.27 452.9L481.94 456.21L480.5 459.46L478.93 462.63L477.24 465.74L475.44 468.77L473.52 471.73L471.5 474.6L469.37 477.39L467.13 480.1L464.8 482.72L462.37 485.24L459.84 487.67L457.22 490.01L454.52 492.24L451.72 494.37L448.85 496.39L445.89 498.31L442.86 500.11L439.75 501.8L436.58 503.37L433.33 504.82L430.02 506.14L426.65 507.34L423.21 508.41L419.72 509.34L416.18 510.14L412.59 510.8L408.95 511.32L405.26 511.7L401.54 511.92L397.77 512L255.97 511.99L255.92 511.99L255.86 511.99L255.81 511.99L255.75 511.99L255.73 511.99L255.67 511.99L255.62 511.99L255.59 511.99L255.57 511.99L255.54 511.99L255.51 511.99L255.48 511.99L255.42 511.99L255.36 511.99L255.29 512L255.26 512L255.22 512L255.19 512L255.11 512L255.07 512L254.9 512L252.84 511.97L250.8 511.89L248.77 511.76L246.77 511.57L244.79 511.33L242.83 511.05L240.89 510.71L238.97 510.32L237.08 509.89L235.2 509.41L233.35 508.88L231.51 508.31L229.7 507.69L227.91 507.03L226.14 506.32L224.39 505.58L222.66 504.79L220.95 503.96L219.27 503.09L217.6 502.19L215.96 501.24L214.34 500.26L212.74 499.25L211.16 498.19L209.6 497.11L208.06 495.99L206.55 494.83L205.05 493.65L203.58 492.43L202.13 491.18L200.7 489.91L199.29 488.6L197.91 487.27L196.54 485.91L195.2 484.52L193.87 483.11L192.57 481.67L191.29 480.22L190.04 478.73L188.8 477.23L187.57 475.7L186.36 474.14L185.17 472.56L183.99 470.97L182.84 469.35L181.7 467.72L180.58 466.06L179.47 464.39L178.38 462.7L177.31 460.99L176.26 459.27L175.22 457.53L174.2 455.77L173.19 454.01L172.2 452.22L171.23 450.43L170.27 448.62L169.33 446.8L168.4 444.96L167.49 443.12L166.59 441.26L165.71 439.4L164.84 437.52L163.99 435.64L163.15 433.75L162.33 431.85L161.52 429.94L160.72 428.03L159.94 426.11L159.17 424.18L158.41 422.25L157.67 420.32L156.94 418.38L156.22 416.44L155.52 414.49L154.83 412.55L154.15 410.6L153.48 408.65L152.82 406.71L152.18 404.76L150.94 400.87L149.74 396.99L148.58 393.11L147.48 389.26L146.41 385.43L145.4 381.62L144.42 377.85L143.49 374.11L142.59 370.41L141.74 366.75L140.93 363.15L140.15 359.59L139.42 356.1L138.72 352.67L138.06 349.31L137.43 346.03L136.84 342.82L136.28 339.69L135.76 336.65L135.27 333.71L134.81 330.86L134.38 328.11L133.98 325.47L133.61 322.93L133.27 320.52L132.96 318.22L132.67 316.05L132.41 314.01L132.17 312.1L131.96 310.33L131.78 308.7L131.61 307.23L131.47 305.9L131.35 304.74L131.25 303.73L131.16 302.89L131.1 302.23L131.06 301.74L131.03 301.43L131.02 301.31L131.01 301.16L131 301L130.99 300.85L130.99 300.69L130.99 300.54L130.99 300.38L131 300.23L131.01 300.07L131.02 299.92L131.03 299.77L131.05 299.61L131.07 299.46L131.1 299.31L131.12 299.16L131.15 299.01L131.18 298.86L131.21 298.71L131.25 298.56L131.29 298.41L131.33 298.27L131.38 298.12L131.43 297.98L131.48 297.83L131.53 297.69L131.59 297.55L131.64 297.4L131.71 297.26L131.77 297.12L131.84 296.99L131.91 296.85L131.98 296.71L132.05 296.58L132.13 296.44L132.21 296.31L132.29 296.18L132.38 296.05L132.46 295.92L132.55 295.8L132.65 295.67L132.74 295.55L135.14 292.43L137.44 289.35L139.65 286.3L141.76 283.29L143.78 280.31L145.71 277.38L147.55 274.49L149.31 271.64L150.98 268.83L152.58 266.08L154.09 263.37L155.52 260.71L156.88 258.11L158.17 255.55L159.38 253.06L160.53 250.62L161.61 248.24L162.62 245.92L163.57 243.66L164.46 241.46L165.29 239.33L166.06 237.27L166.77 235.28L167.43 233.35L168.04 231.5L168.61 229.72L169.12 228.02L169.59 226.4L170.01 224.85L170.4 223.39L170.74 222L171.05 220.7L171.32 219.49L171.56 218.36L171.77 217.33L171.95 216.38L172.1 215.52L172.23 214.76L172.33 214.1L172.42 213.53L172.43 213.46L172.44 213.39L172.44 213.32L172.45 213.26L172.46 213.19L172.47 213.13L172.48 213.08L172.48 213.02L172.49 212.97L172.5 212.92L172.5 212.87L172.51 212.82L172.52 212.78L172.52 212.73L172.53 212.69L172.53 212.66L172.54 212.62L172.54 212.59L172.54 212.55L172.55 212.52L172.55 212.5L172.55 212.47L172.56 212.44L172.56 212.42L172.56 212.4L172.56 212.38L172.57 212.35L172.57 212.32L172.57 212.3L172.57 212.28L172.58 212.26L172.6 212.03L172.62 211.81L172.66 211.59L172.69 211.37L172.74 211.16L172.79 210.94L172.84 210.73L172.9 210.52L172.97 210.31L173.04 210.1L173.12 209.9L173.2 209.69L173.29 209.5L173.38 209.3L173.48 209.1L173.58 208.91L173.69 208.73L173.8 208.54L173.92 208.36L174.04 208.18L174.17 208L174.3 207.83L174.43 207.66L174.57 207.5L174.72 207.34L174.87 207.18L175.02 207.02L175.18 206.87L175.34 206.73L175.51 206.59L175.68 206.45L175.85 206.32L176.03 206.19L176.21 206.06L176.39 205.94L176.58 205.83L176.77 205.72L176.97 205.61L177.17 205.51L177.37 205.41L177.98 205.14L178.59 204.87L179.19 204.61L179.79 204.36L180.39 204.11L180.99 203.87L181.58 203.64L182.17 203.41L182.75 203.19L183.34 202.98L183.92 202.78L184.5 202.58L185.07 202.39L185.64 202.21L186.21 202.03L186.78 201.86L187.34 201.7L187.9 201.54L188.46 201.39L189.02 201.25L189.57 201.12L190.12 200.99L190.67 200.87L191.21 200.76L191.76 200.65L192.3 200.55L192.83 200.46L193.37 200.37L193.9 200.29L194.43 200.22L194.96 200.15L195.49 200.09L196.01 200.04L196.53 200L197.05 199.96L197.56 199.93L198.08 199.9L198.59 199.88L199.1 199.87L199.6 199.87L200.44 199.87L201.26 199.89L202.08 199.93L202.89 200L203.69 200.08L204.48 200.19L205.26 200.31L206.04 200.45L206.8 200.62L207.55 200.8L208.29 201L209.03 201.21L209.75 201.45L210.46 201.7L211.16 201.96L211.86 202.25L212.54 202.55L213.21 202.86L213.87 203.19L214.51 203.53L215.15 203.89L215.77 204.26L216.39 204.64L216.99 205.03L217.58 205.44L218.15 205.86L218.72 206.29L219.27 206.73L219.81 207.18L220.34 207.64L220.85 208.12L221.35 208.6L221.84 209.09L222.31 209.58L222.77 210.09L223.22 210.6L223.65 211.12L224.07 211.65L224.48 212.19L224.87 212.72L224.87 87.49L224.9 85.85L225 84.23L225.16 82.62L225.39 81.03L225.68 79.47L226.03 77.93L226.44 76.41L226.9 74.91L227.42 73.44L228 72L228.63 70.59L229.32 69.2L230.05 67.85L230.84 66.53L231.67 65.24L232.55 63.99L233.48 62.77L234.45 61.59L235.47 60.45L236.53 59.35L237.63 58.29L238.77 57.28L239.95 56.31L241.17 55.38L242.42 54.5L243.71 53.66L245.03 52.88L246.38 52.14L247.77 51.46L249.18 50.83L250.62 50.25L252.09 49.73L253.59 49.26L255.11 48.86L256.65 48.51L258.22 48.22L259.8 47.99L261.41 47.83L263.03 47.73L264.67 47.7L265.28 47.7L265.88 47.72L266.48 47.74L267.07 47.77L267.67 47.81L268.26 47.86L268.84 47.92L269.43 47.99L270.01 48.07L270.59 48.16L271.17 48.25L271.74 48.35L272.31 48.46L272.88 48.58L273.45 48.71L274.01 48.84L274.57 48.99L275.12 49.14L275.68 49.3L276.22 49.46L276.77 49.64L277.31 49.82L277.85 50.01L278.39 50.21L278.92 50.41L279.45 50.62L279.97 50.84L280.49 51.07L281.01 51.3L281.52 51.54L282.03 51.79L282.54 52.05L283.04 52.31L283.54 52.57L284.03 52.85L284.52 53.13L285 53.42L285.48 53.71L285.96 54.01L286.43 54.32L286.43 47.49L286.47 45.84L286.57 44.22L286.73 42.61L286.96 41.03L287.24 39.46L287.59 37.92L288 36.4L288.47 34.9L288.99 33.43L289.56 31.99L290.2 30.57L290.88 29.19L291.61 27.84L292.4 26.51L293.23 25.23L294.12 23.97L295.04 22.76L296.02 21.58L297.03 20.44L298.09 19.34L299.19 18.28L300.33 17.26L301.51 16.29L302.73 15.36L303.98 14.48L305.27 13.64L306.59 12.86L307.94 12.12L309.32 11.44L310.73 10.81L312.18 10.23L313.64 9.71L315.14 9.25L316.66 8.84L318.2 8.49L319.76 8.2L321.35 7.98L322.95 7.81L324.58 7.71L326.22 7.68L327.58 7.7L328.93 7.77ZM324.3 24.25L323.36 24.35L322.43 24.48L321.52 24.65L320.62 24.86L319.73 25.1L318.85 25.37L317.99 25.67L317.15 26.01L316.32 26.38L315.51 26.78L314.72 27.21L313.95 27.67L313.19 28.16L312.46 28.68L311.75 29.22L311.06 29.79L310.39 30.39L309.75 31.01L309.13 31.65L308.53 32.32L307.96 33.01L307.42 33.72L306.9 34.45L306.42 35.21L305.96 35.98L305.53 36.77L305.12 37.58L304.76 38.41L304.42 39.25L304.11 40.11L303.84 40.99L303.6 41.88L303.39 42.78L303.22 43.7L303.09 44.63L302.99 45.57L302.93 46.52L302.91 47.49L302.91 260.65L302.9 260.99L302.88 261.32L302.85 261.66L302.8 261.99L302.74 262.31L302.66 262.63L302.58 262.94L302.48 263.25L302.37 263.56L302.25 263.86L302.12 264.15L301.97 264.43L301.82 264.71L301.65 264.99L301.48 265.25L301.29 265.51L301.1 265.76L300.9 266.01L300.69 266.24L300.46 266.47L300.23 266.69L300 266.9L299.75 267.1L299.5 267.29L299.24 267.47L298.97 267.64L298.69 267.8L298.41 267.95L298.13 268.09L297.83 268.22L297.53 268.34L297.23 268.45L296.92 268.54L296.6 268.62L296.28 268.69L295.96 268.75L295.63 268.8L295.3 268.83L294.96 268.85L294.62 268.85L294.28 268.84L293.94 268.82L293.61 268.79L293.28 268.74L292.96 268.68L292.64 268.6L292.33 268.52L292.02 268.42L291.71 268.31L291.42 268.19L291.12 268.06L290.84 267.91L290.56 267.76L290.29 267.6L290.02 267.42L289.76 267.24L289.51 267.04L289.27 266.84L289.04 266.63L288.81 266.41L288.59 266.18L288.38 265.94L288.18 265.7L287.99 265.44L287.81 265.18L287.64 264.92L287.48 264.64L287.33 264.36L287.19 264.07L287.06 263.78L286.94 263.48L286.84 263.17L286.74 262.86L286.66 262.55L286.59 262.23L286.53 261.9L286.48 261.57L286.45 261.24L286.43 260.9L286.43 260.56L286.43 260.22L286.43 255.46L286.43 249.52L286.43 226.92L286.43 203.14L286.43 163.05L286.43 130.28L286.43 79.2L286.17 78.54L285.89 77.9L285.59 77.27L285.28 76.64L284.94 76.03L284.59 75.43L284.22 74.84L283.84 74.26L283.43 73.7L283.02 73.15L282.58 72.61L282.13 72.08L281.67 71.57L281.19 71.07L280.69 70.59L280.18 70.12L279.66 69.66L279.13 69.22L278.58 68.8L278.02 68.39L277.44 68L276.86 67.63L276.26 67.27L275.65 66.93L275.04 66.61L274.41 66.31L273.77 66.03L273.12 65.76L272.46 65.52L271.79 65.29L271.11 65.08L270.42 64.9L269.73 64.73L269.03 64.59L268.32 64.47L267.6 64.37L266.88 64.29L266.15 64.23L265.41 64.2L264.67 64.19L263.71 64.21L262.76 64.27L261.82 64.36L260.89 64.5L259.97 64.67L259.07 64.87L258.18 65.11L257.3 65.38L256.44 65.69L255.6 66.03L254.77 66.4L253.96 66.8L253.17 67.23L252.4 67.69L251.64 68.18L250.91 68.69L250.2 69.24L249.51 69.8L248.84 70.4L248.2 71.02L247.58 71.66L246.98 72.33L246.41 73.02L245.87 73.73L245.35 74.47L244.86 75.22L244.4 75.99L243.97 76.78L243.57 77.59L243.2 78.42L242.86 79.26L242.56 80.12L242.28 81L242.04 81.89L241.84 82.79L241.67 83.71L241.54 84.64L241.44 85.58L241.38 86.53L241.36 87.49L241.36 336.99L241.77 337.03L242.2 337.06L242.66 337.11L243.13 337.15L243.62 337.2L244.13 337.26L244.67 337.31L245.22 337.38L245.78 337.45L246.37 337.52L246.97 337.6L247.6 337.68L248.23 337.77L248.89 337.87L249.56 337.97L250.24 338.08L250.94 338.19L251.66 338.31L252.39 338.44L253.13 338.57L253.89 338.71L254.66 338.86L255.44 339.02L256.24 339.18L257.05 339.35L257.87 339.53L258.7 339.71L259.54 339.91L260.39 340.11L261.25 340.32L262.13 340.55L263.01 340.77L263.9 341.01L264.8 341.26L265.7 341.52L266.62 341.79L267.54 342.06L268.47 342.35L269.4 342.65L270.34 342.95L271.65 343.4L272.96 343.86L274.28 344.35L275.61 344.86L276.96 345.39L278.3 345.95L279.66 346.53L281.02 347.13L282.38 347.76L283.74 348.42L285.1 349.11L286.47 349.82L287.83 350.56L289.18 351.33L290.54 352.13L291.88 352.95L293.22 353.81L294.55 354.7L295.88 355.62L297.19 356.57L298.48 357.55L299.77 358.57L301.04 359.62L302.29 360.7L303.53 361.82L304.74 362.97L305.94 364.16L307.11 365.39L308.27 366.65L309.39 367.95L310.5 369.28L311.58 370.66L312.62 372.07L313.64 373.53L314.63 375.02L315.59 376.55L316.52 378.13L317.41 379.75L318.26 381.4L319.08 383.11L319.22 383.42L319.34 383.73L319.45 384.05L319.54 384.37L319.62 384.69L319.69 385.01L319.75 385.33L319.79 385.65L319.82 385.97L319.84 386.29L319.84 386.61L319.83 386.93L319.81 387.25L319.78 387.57L319.73 387.88L319.67 388.19L319.6 388.5L319.52 388.81L319.43 389.11L319.33 389.41L319.21 389.7L319.09 389.99L318.95 390.28L318.8 390.56L318.64 390.83L318.47 391.1L318.29 391.36L318.1 391.62L317.9 391.87L317.69 392.11L317.46 392.34L317.23 392.57L316.99 392.78L316.74 392.99L316.48 393.19L316.21 393.38L315.93 393.56L315.64 393.73L315.35 393.89L315.04 394.04L314.96 394.07L314.87 394.11L314.79 394.15L314.71 394.19L314.62 394.22L314.54 394.25L314.45 394.29L314.37 394.32L314.28 394.35L314.2 394.38L314.11 394.41L314.03 394.44L313.94 394.46L313.85 394.49L313.77 394.51L313.68 394.54L313.6 394.56L313.51 394.58L313.42 394.6L313.34 394.62L313.25 394.64L313.17 394.66L313.08 394.67L312.99 394.69L312.91 394.7L312.82 394.72L312.73 394.73L312.64 394.74L312.56 394.75L312.47 394.76L312.38 394.77L312.3 394.78L312.21 394.79L312.12 394.79L312.04 394.8L311.95 394.8L311.86 394.8L311.77 394.81L311.69 394.81L311.6 394.81L311.37 394.81L311.14 394.8L310.9 394.78L310.67 394.76L310.44 394.73L310.22 394.69L309.99 394.65L309.76 394.6L309.54 394.54L309.32 394.48L309.09 394.42L308.88 394.34L308.66 394.26L308.44 394.18L308.23 394.08L308.02 393.99L307.82 393.88L307.61 393.77L307.41 393.66L307.21 393.54L307.02 393.41L306.83 393.28L306.64 393.14L306.45 393L306.27 392.85L306.1 392.7L305.92 392.54L305.76 392.37L305.59 392.2L305.43 392.03L305.28 391.85L305.13 391.66L304.98 391.47L304.84 391.28L304.71 391.08L304.58 390.87L304.45 390.66L304.33 390.45L304.22 390.23L304.11 390.01L303.22 388.12L302.26 386.31L301.23 384.55L300.13 382.85L298.97 381.22L297.75 379.64L296.48 378.12L295.15 376.66L293.78 375.26L292.36 373.91L290.9 372.61L289.4 371.37L287.86 370.18L286.29 369.04L284.7 367.95L283.08 366.91L281.44 365.92L279.78 364.98L278.1 364.08L276.42 363.23L274.72 362.42L273.03 361.65L271.33 360.93L269.63 360.24L267.94 359.6L266.25 359L264.58 358.43L262.93 357.9L261.29 357.41L259.68 356.95L258.09 356.52L256.54 356.13L255.01 355.77L253.52 355.44L252.07 355.14L250.67 354.87L249.31 354.63L247.99 354.41L246.74 354.22L245.54 354.05L245.16 354L244.79 353.95L244.43 353.9L244.07 353.86L243.73 353.82L243.39 353.77L243.06 353.74L242.75 353.7L242.44 353.66L242.13 353.63L241.84 353.6L241.56 353.57L241.28 353.54L241.02 353.52L240.76 353.49L240.51 353.47L240.27 353.45L240.04 353.43L239.83 353.41L239.62 353.39L239.41 353.38L239.22 353.36L239.04 353.35L238.87 353.34L238.71 353.33L238.56 353.32L238.42 353.31L238.28 353.3L238.16 353.29L238.05 353.29L237.95 353.28L237.86 353.28L237.78 353.27L237.71 353.27L237.65 353.27L237.6 353.27L237.56 353.26L237.54 353.26L237.51 353.26L237.47 353.26L237.43 353.26L237.36 353.25L237.28 353.25L237.18 353.24L237.06 353.23L236.94 353.22L236.79 353.21L236.64 353.2L236.48 353.18L236.3 353.17L236.11 353.15L235.92 353.14L235.72 353.12L235.51 353.1L235.29 353.08L235.07 353.06L234.85 353.04L234.62 353.02L234.39 353L234.16 352.97L233.93 352.95L233.7 352.93L233.47 352.9L233.24 352.88L233.01 352.85L232.79 352.83L232.58 352.8L232.37 352.77L232.16 352.75L231.97 352.72L231.78 352.69L231.6 352.66L231.43 352.64L231.27 352.61L231.13 352.58L230.99 352.55L230.88 352.52L230.77 352.49L211.58 346.75L211.38 346.7L211.15 346.62L210.89 346.51L210.61 346.38L210.3 346.22L209.98 346.03L209.63 345.82L209.27 345.57L208.89 345.3L208.5 345L208.09 344.66L207.68 344.3L207.25 343.91L206.82 343.49L206.39 343.03L205.95 342.55L205.51 342.03L205.07 341.48L204.63 340.9L204.19 340.28L203.76 339.64L203.34 338.95L202.93 338.24L202.53 337.49L202.14 336.7L201.76 335.88L201.4 335.02L201.06 334.13L200.74 333.2L200.44 332.23L200.16 331.23L199.91 330.19L199.68 329.11L199.49 327.99L199.32 326.83L199.18 325.64L199.08 324.4L199.02 323.13L198.99 321.81L199 320.46L199.01 319.41L199.04 318.34L199.09 317.25L199.16 316.13L199.25 314.98L199.35 313.81L199.48 312.62L199.63 311.39L199.8 310.14L199.99 308.87L200.21 307.56L200.45 306.23L200.71 304.87L201 303.47L201.31 302.05L201.65 300.6L202.01 299.12L202.41 297.6L202.82 296.06L203.27 294.48L203.74 292.87L204.24 291.23L204.77 289.55L205.33 287.84L205.93 286.1L206.55 284.32L207.2 282.5L207.89 280.65L208.6 278.76L209.35 276.84L210.14 274.88L210.95 272.88L211.81 270.84L212.69 268.77L213.62 266.66L214.58 264.5L215.57 262.31L216.61 260.08L217.68 257.8L218.79 255.49L218.79 255.45L218.79 255.4L218.79 255.32L218.79 255.27L218.79 255.18L218.79 255.14L218.79 255.09L218.79 255.04L218.8 255L218.8 254.95L218.8 254.9L218.8 254.85L218.8 254.8L218.8 254.75L218.8 254.7L218.8 254.65L218.8 254.6L218.8 254.54L218.8 254.49L218.8 254.44L218.8 254.38L218.8 254.33L218.8 254.27L218.81 254.22L218.81 254.16L218.81 254.1L218.81 254.05L218.81 253.99L218.81 253.93L218.81 253.87L218.81 253.81L218.81 253.75L218.81 253.69L218.81 253.63L218.81 253.57L218.81 253.5L218.81 253.44L218.81 253.38L218.82 252.83L218.82 252.25L218.82 251.65L218.8 251.01L218.79 250.35L218.76 249.66L218.73 248.95L218.69 248.22L218.64 247.46L218.58 246.69L218.51 245.9L218.44 245.09L218.35 244.27L218.26 243.44L218.15 242.59L218.04 241.74L217.92 240.88L217.78 240.01L217.64 239.14L217.48 238.27L217.32 237.4L217.14 236.52L216.95 235.65L216.75 234.78L216.54 233.92L216.31 233.06L216.07 232.21L215.82 231.37L215.55 230.55L215.28 229.73L214.99 228.94L214.68 228.15L214.36 227.39L214.03 226.65L213.68 225.92L213.32 225.22L212.94 224.55L212.54 223.9L212.13 223.28L211.71 222.69L211.48 222.38L211.24 222.09L211.01 221.8L210.78 221.52L210.54 221.24L210.31 220.98L210.08 220.72L209.84 220.47L209.6 220.23L209.36 219.99L209.12 219.76L208.88 219.54L208.63 219.33L208.38 219.12L208.12 218.93L207.86 218.73L207.6 218.55L207.33 218.38L207.06 218.21L206.78 218.05L206.5 217.89L206.21 217.75L205.91 217.61L205.61 217.48L205.3 217.35L204.98 217.24L204.66 217.13L204.33 217.02L203.99 216.93L203.64 216.84L203.28 216.76L202.91 216.69L202.54 216.62L202.15 216.57L201.75 216.52L201.35 216.47L200.93 216.44L200.5 216.41L200.06 216.39L199.6 216.37L199.38 216.37L199.16 216.37L198.94 216.38L198.71 216.39L198.47 216.4L198.24 216.41L198 216.43L197.76 216.45L197.51 216.47L197.27 216.49L197.01 216.52L196.76 216.55L196.5 216.58L196.24 216.62L195.97 216.66L195.71 216.7L195.44 216.74L195.16 216.79L194.88 216.84L194.6 216.9L194.32 216.95L194.03 217.01L193.74 217.08L193.45 217.15L193.15 217.22L192.85 217.29L192.54 217.37L192.24 217.45L191.93 217.54L191.61 217.63L191.29 217.72L190.97 217.82L190.65 217.92L190.32 218.02L189.99 218.13L189.66 218.24L189.32 218.36L188.98 218.48L188.64 218.6L188.29 218.73L188.11 219.68L187.92 220.71L187.69 221.82L187.44 223L187.16 224.25L186.85 225.57L186.5 226.96L186.13 228.41L185.72 229.94L185.27 231.53L184.79 233.18L184.26 234.89L183.7 236.67L183.09 238.5L182.44 240.4L181.75 242.35L181.01 244.36L180.22 246.42L179.38 248.54L178.49 250.71L177.55 252.93L176.55 255.2L175.5 257.51L174.4 259.88L173.23 262.29L172.01 264.74L170.72 267.24L169.37 269.78L167.96 272.36L166.48 274.99L164.93 277.64L163.32 280.34L161.63 283.07L159.88 285.84L158.05 288.64L156.14 291.47L154.16 294.33L152.11 297.22L149.97 300.14L147.75 303.08L147.78 303.32L147.8 303.56L147.83 303.81L147.86 304.07L147.89 304.33L147.92 304.61L147.95 304.89L147.98 305.18L148.01 305.48L148.04 305.78L148.08 306.09L148.12 306.41L148.15 306.74L148.19 307.08L148.23 307.42L148.27 307.77L148.31 308.12L148.35 308.49L148.4 308.86L148.44 309.24L148.49 309.62L148.54 310.01L148.59 310.41L148.64 310.82L148.69 311.23L148.74 311.65L148.79 312.08L148.85 312.51L148.9 312.95L148.96 313.4L149.02 313.85L149.08 314.31L149.14 314.78L149.2 315.25L149.27 315.73L149.33 316.22L149.4 316.71L149.47 317.21L149.54 317.71L149.61 318.23L149.73 319.09L149.86 319.97L149.98 320.87L150.12 321.78L150.25 322.71L150.39 323.66L150.54 324.62L150.69 325.59L150.84 326.58L151 327.58L151.16 328.6L151.32 329.63L151.49 330.67L151.67 331.73L151.84 332.8L152.03 333.88L152.21 334.98L152.4 336.09L152.6 337.21L152.8 338.34L153 339.48L153.21 340.64L153.43 341.8L153.65 342.98L153.87 344.17L154.1 345.36L154.33 346.57L154.57 347.79L154.81 349.01L155.06 350.25L155.31 351.49L155.57 352.75L155.83 354.01L156.1 355.28L156.37 356.56L156.65 357.84L156.93 359.14L157.22 360.44L157.51 361.74L157.81 363.06L158.42 365.7L159.05 368.37L159.71 371.06L160.39 373.77L161.09 376.5L161.81 379.24L162.56 382L163.33 384.77L164.13 387.54L164.95 390.33L165.79 393.12L166.66 395.91L167.56 398.7L168.47 401.49L169.42 404.28L170.38 407.06L171.38 409.84L172.4 412.6L173.44 415.36L174.51 418.1L175.61 420.82L176.73 423.53L177.88 426.22L179.05 428.88L180.25 431.52L181.48 434.13L182.74 436.72L184.02 439.28L185.33 441.8L186.67 444.29L188.03 446.74L189.43 449.15L190.85 451.52L192.3 453.85L193.77 456.14L195.28 458.38L196.82 460.56L198.38 462.7L199.97 464.78L201.59 466.81L202.7 468.14L203.81 469.44L204.93 470.71L206.06 471.95L207.2 473.16L208.36 474.35L209.52 475.51L210.69 476.64L211.87 477.74L213.07 478.81L214.28 479.85L215.49 480.86L216.72 481.85L217.96 482.8L219.22 483.71L220.48 484.6L221.76 485.46L223.05 486.28L224.35 487.07L225.67 487.83L227 488.55L228.34 489.24L229.7 489.9L231.07 490.52L232.45 491.11L233.85 491.66L235.27 492.18L236.7 492.66L238.14 493.1L239.6 493.51L241.08 493.89L242.57 494.22L244.07 494.52L245.59 494.78L247.13 495L248.69 495.18L250.26 495.33L251.85 495.43L253.45 495.5L255.08 495.52L255.3 495.52L255.94 495.52L256.96 495.52L260.1 495.52L262.18 495.52L267.26 495.52L273.45 495.52L284.48 495.52L288.56 495.52L301.69 495.52L315.8 495.52L325.5 495.52L344.96 495.52L371.99 495.52L386.85 495.51L397.77 495.51L400.86 495.45L403.91 495.25L406.93 494.94L409.91 494.51L412.85 493.97L415.75 493.31L418.61 492.54L421.42 491.67L424.18 490.68L426.9 489.6L429.55 488.41L432.15 487.12L434.7 485.74L437.18 484.26L439.6 482.69L441.95 481.04L444.24 479.29L446.46 477.46L448.6 475.55L450.67 473.56L452.66 471.49L454.57 469.35L456.4 467.13L458.15 464.84L459.8 462.49L461.37 460.07L462.85 457.59L464.23 455.04L465.52 452.44L466.71 449.78L467.79 447.07L468.77 444.31L469.65 441.5L470.42 438.64L471.08 435.74L471.62 432.8L472.05 429.82L472.36 426.8L472.55 423.75L472.62 420.66L472.62 127.5L472.6 126.54L472.54 125.59L472.44 124.65L472.31 123.72L472.14 122.8L471.93 121.9L471.7 121.01L471.42 120.13L471.12 119.27L470.78 118.43L470.41 117.6L470.01 116.79L469.58 116L469.12 115.23L468.63 114.47L468.12 113.74L467.57 113.03L467 112.34L466.41 111.67L465.79 111.03L465.15 110.41L464.48 109.81L463.79 109.24L463.08 108.7L462.35 108.18L461.59 107.69L460.82 107.23L460.03 106.8L459.22 106.4L458.39 106.03L457.55 105.69L456.69 105.39L455.81 105.12L454.93 104.88L454.02 104.67L453.11 104.5L452.18 104.37L451.24 104.27L450.29 104.21L449.33 104.19L448.59 104.2L447.85 104.24L447.12 104.29L446.39 104.37L445.68 104.47L444.97 104.6L444.26 104.74L443.57 104.91L442.88 105.09L442.2 105.3L441.54 105.52L440.88 105.77L440.23 106.03L439.59 106.32L438.96 106.62L438.34 106.94L437.73 107.28L437.13 107.63L436.55 108.01L435.97 108.4L435.41 108.8L434.86 109.23L434.33 109.66L433.81 110.12L433.3 110.59L432.81 111.07L432.33 111.57L431.86 112.08L431.41 112.6L430.98 113.14L430.56 113.69L430.15 114.26L429.77 114.83L429.4 115.42L429.05 116.02L428.71 116.63L428.39 117.26L428.09 117.89L427.81 118.53L427.55 119.18L427.55 281.52L427.56 281.52L427.56 281.86L427.54 282.2L427.5 282.53L427.45 282.86L427.39 283.18L427.32 283.5L427.24 283.81L427.14 284.12L427.03 284.43L426.91 284.73L426.78 285.02L426.64 285.31L426.49 285.59L426.33 285.86L426.15 286.13L425.97 286.39L425.78 286.64L425.57 286.88L425.36 287.12L425.14 287.35L424.92 287.57L424.68 287.78L424.43 287.98L424.18 288.17L423.92 288.36L423.66 288.53L423.38 288.69L423.1 288.85L422.81 288.99L422.52 289.12L422.22 289.24L421.92 289.35L421.61 289.44L421.29 289.53L420.97 289.6L420.65 289.66L420.32 289.71L419.98 289.74L419.65 289.76L419.31 289.77L418.97 289.76L418.63 289.74L418.3 289.71L417.97 289.66L417.65 289.6L417.33 289.53L417.01 289.44L416.7 289.35L416.4 289.24L416.1 289.12L415.8 288.99L415.52 288.85L415.24 288.69L414.96 288.53L414.7 288.36L414.44 288.17L414.19 287.98L413.94 287.78L413.71 287.57L413.48 287.35L413.26 287.12L413.05 286.88L412.85 286.64L412.65 286.39L412.47 286.13L412.3 285.86L412.14 285.59L411.98 285.31L411.84 285.02L411.71 284.73L411.59 284.43L411.48 284.12L411.39 283.81L411.3 283.5L411.23 283.18L411.17 282.86L411.13 282.53L411.09 282.2L411.07 281.86L411.06 281.52L411.06 69.02L411.04 68.06L410.98 67.11L410.89 66.17L410.75 65.24L410.58 64.32L410.38 63.42L410.14 62.53L409.87 61.65L409.56 60.79L409.22 59.95L408.85 59.12L408.45 58.31L408.02 57.52L407.56 56.75L407.07 55.99L406.56 55.26L406.01 54.55L405.45 53.86L404.85 53.19L404.23 52.55L403.59 51.93L402.92 51.33L402.23 50.76L401.52 50.22L400.78 49.7L400.03 49.21L399.26 48.75L398.46 48.32L397.65 47.92L396.82 47.55L395.98 47.21L395.12 46.91L394.24 46.63L393.35 46.4L392.45 46.19L391.53 46.02L390.6 45.89L389.66 45.79L388.71 45.73L387.75 45.71L387.01 45.72L386.27 45.75L385.54 45.81L384.82 45.89L384.1 45.99L383.39 46.11L382.69 46.26L381.99 46.42L381.31 46.61L380.63 46.82L379.96 47.04L379.3 47.29L378.65 47.55L378.01 47.84L377.38 48.14L376.77 48.46L376.16 48.8L375.56 49.16L374.98 49.53L374.4 49.92L373.84 50.33L373.3 50.75L372.76 51.19L372.24 51.64L371.73 52.11L371.24 52.6L370.76 53.09L370.3 53.61L369.85 54.13L369.41 54.67L369 55.23L368.59 55.79L368.21 56.37L367.84 56.96L367.49 57.56L367.15 58.17L366.84 58.79L366.54 59.43L366.26 60.07L366 60.72L366 272.92L366.01 272.92L366 273.26L365.98 273.59L365.95 273.93L365.9 274.25L365.84 274.58L365.77 274.9L365.68 275.21L365.59 275.52L365.48 275.83L365.36 276.12L365.23 276.42L365.09 276.7L364.94 276.98L364.77 277.26L364.6 277.52L364.42 277.78L364.23 278.04L364.02 278.28L363.81 278.52L363.59 278.74L363.37 278.96L363.13 279.18L362.88 279.38L362.63 279.57L362.37 279.75L362.11 279.93L361.83 280.09L361.55 280.24L361.26 280.38L360.97 280.51L360.67 280.63L360.37 280.74L360.06 280.84L359.74 280.92L359.42 280.99L359.1 281.05L358.77 281.1L358.44 281.13L358.1 281.16L357.76 281.16L357.42 281.16L357.08 281.13L356.75 281.1L356.42 281.05L356.1 280.99L355.78 280.92L355.46 280.84L355.16 280.74L354.85 280.63L354.55 280.51L354.26 280.38L353.97 280.24L353.69 280.09L353.42 279.93L353.15 279.75L352.89 279.57L352.64 279.38L352.4 279.18L352.16 278.96L351.93 278.74L351.71 278.52L351.5 278.28L351.3 278.04L351.11 277.78L350.92 277.52L350.75 277.26L350.59 276.98L350.44 276.7L350.3 276.42L350.16 276.12L350.05 275.83L349.94 275.52L349.84 275.21L349.76 274.9L349.68 274.58L349.62 274.25L349.58 273.93L349.54 273.59L349.52 273.26L349.52 272.92L349.52 47.49L349.5 46.52L349.44 45.57L349.34 44.63L349.21 43.7L349.04 42.78L348.83 41.88L348.59 40.99L348.32 40.11L348.01 39.25L347.68 38.41L347.31 37.58L346.91 36.77L346.47 35.98L346.02 35.21L345.53 34.45L345.01 33.72L344.47 33.01L343.9 32.32L343.3 31.65L342.68 31.01L342.04 30.39L341.37 29.79L340.68 29.22L339.97 28.68L339.24 28.16L338.48 27.67L337.71 27.21L336.92 26.78L336.11 26.38L335.28 26.01L334.43 25.67L333.57 25.37L332.7 25.1L331.81 24.86L330.91 24.65L329.99 24.48L329.06 24.35L328.12 24.25L327.17 24.19L326.21 24.17L325.25 24.19L324.3 24.25ZM222.92 287.51L222.05 289.93L221.24 292.27L220.5 294.52L219.81 296.7L219.19 298.8L218.62 300.82L218.1 302.76L217.64 304.63L217.23 306.42L216.87 308.14L216.55 309.79L216.28 311.36L216.06 312.87L215.87 314.3L215.72 315.66L215.61 316.96L215.54 318.19L215.49 319.35L215.48 320.45L215.51 321.56L215.56 322.59L215.64 323.55L215.73 324.45L215.84 325.27L215.96 326.04L216.09 326.74L216.24 327.38L216.39 327.97L216.55 328.5L216.72 328.99L216.89 329.42L217.05 329.81L217.22 330.15L217.39 330.45L217.55 330.72L217.7 330.95L217.85 331.14L217.98 331.31L218.1 331.44L218.21 331.55L224.86 333.53L224.86 282.42L223.86 285.01L222.92 287.51Z" id="g60Zg3ExF3"></path></defs><g><g><use xlink:href="#g60Zg3ExF3" opacity="1" fill="#000000" fill-opacity="1"></use><g><use xlink:href="#g60Zg3ExF3" opacity="1" fill-opacity="0" stroke="#000000" stroke-width="1" stroke-opacity="0"></use></g></g></g></svg>