<?xml version="1.0" encoding="UTF-8" standalone="no"?>
<!DOCTYPE svg PUBLIC "-//W3C//DTD SVG 1.1//EN" "http://www.w3.org/Graphics/SVG/1.1/DTD/svg11.dtd">
<svg version="1.1" xmlns="http://www.w3.org/2000/svg" xmlns:xlink="http://www.w3.org/1999/xlink" preserveAspectRatio="xMidYMid meet" viewBox="128.5772792888889 -1 363.55623182222223 516" width="359.56" height="512"><defs><path d="M352.2 0L352.34 0L352.48 0L352.62 0.01L352.76 0.01L352.9 0.01L353.04 0.02L353.17 0.02L353.31 0.03L353.45 0.03L353.59 0.04L353.73 0.04L353.87 0.05L354.01 0.06L354.15 0.06L354.29 0.07L354.43 0.08L354.56 0.09L354.7 0.1L354.84 0.11L354.98 0.12L355.12 0.13L355.26 0.14L355.4 0.16L355.54 0.17L355.68 0.18L355.82 0.19L355.95 0.21L356.09 0.22L356.23 0.24L356.37 0.25L356.51 0.27L356.65 0.29L356.79 0.3L356.93 0.32L357.06 0.34L357.2 0.36L357.34 0.37L357.48 0.39L358.96 0.63L360.42 0.92L361.86 1.26L363.27 1.65L364.66 2.09L366.02 2.58L367.36 3.11L368.68 3.69L369.96 4.31L371.22 4.98L372.45 5.69L373.64 6.44L374.81 7.23L375.95 8.06L377.05 8.93L378.12 9.83L379.16 10.77L380.16 11.75L381.13 12.75L382.06 13.79L382.95 14.87L383.81 15.97L384.62 17.1L385.4 18.26L386.14 19.45L386.83 20.66L387.48 21.9L388.09 23.16L388.66 24.44L389.18 25.75L389.65 27.07L390.08 28.42L390.46 29.78L390.79 31.17L391.08 32.56L391.31 33.98L391.49 35.4L391.63 36.84L391.71 38.29L391.73 39.75L391.73 39.89L391.73 40.03L391.73 40.17L391.73 40.3L391.73 40.44L391.73 40.58L391.72 40.72L391.72 40.85L391.72 40.99L391.71 41.13L391.71 41.27L391.7 41.41L391.7 41.54L391.69 41.68L391.68 41.82L391.68 41.96L391.67 42.1L391.66 42.24L391.65 42.37L391.64 42.51L391.64 42.65L391.63 42.79L391.62 42.93L391.6 43.07L391.59 43.2L391.58 43.34L391.57 43.48L391.56 43.62L391.54 43.75L391.53 43.89L391.52 44.03L391.5 44.17L391.49 44.3L391.47 44.44L391.45 44.58L391.44 44.71L391.42 44.85L391.4 44.98L391.38 45.12L391.36 45.26L374.4 175.43L374.81 175.23L375.22 175.03L375.63 174.83L376.04 174.65L376.46 174.46L376.88 174.28L377.3 174.11L377.72 173.93L378.14 173.77L378.57 173.61L379 173.45L379.43 173.3L379.86 173.15L380.3 173.01L380.73 172.87L381.17 172.73L381.61 172.61L382.06 172.48L382.5 172.37L382.95 172.25L383.39 172.14L383.84 172.04L384.29 171.94L384.75 171.85L385.2 171.76L385.66 171.68L386.12 171.61L386.58 171.54L387.04 171.47L387.5 171.41L387.96 171.35L388.43 171.31L388.89 171.26L389.36 171.22L389.83 171.19L390.3 171.16L390.78 171.14L391.25 171.13L391.72 171.12L392.2 171.12L392.34 171.12L392.48 171.12L392.62 171.12L392.76 171.12L392.9 171.12L393.04 171.12L393.18 171.13L393.32 171.13L393.46 171.14L393.6 171.14L393.74 171.15L393.88 171.15L394.01 171.16L394.15 171.16L394.29 171.17L394.43 171.18L394.57 171.19L394.71 171.2L394.85 171.2L394.99 171.21L395.13 171.22L395.27 171.23L395.41 171.24L395.55 171.26L395.68 171.27L395.82 171.28L395.96 171.29L396.1 171.31L396.24 171.32L396.38 171.33L396.52 171.35L396.66 171.36L396.8 171.38L396.94 171.4L397.07 171.41L397.21 171.43L397.35 171.45L397.49 171.47L397.63 171.48L397.77 171.5L399.25 171.74L400.71 172.03L402.15 172.37L403.56 172.76L404.95 173.2L406.31 173.69L407.65 174.22L408.96 174.8L410.25 175.42L411.51 176.09L412.74 176.8L413.93 177.55L415.1 178.34L416.24 179.17L417.34 180.04L418.41 180.94L419.45 181.88L420.45 182.86L421.42 183.86L422.35 184.91L423.24 185.98L424.1 187.08L424.91 188.21L425.69 189.37L426.43 190.56L427.12 191.77L427.77 193.01L428.38 194.27L428.95 195.55L429.47 196.86L429.94 198.19L430.37 199.53L430.75 200.9L431.08 202.28L431.37 203.67L431.6 205.09L431.78 206.51L431.92 207.95L432 209.4L432.02 210.86L432.02 210.88L432.02 210.89L432.02 210.91L432.02 210.92L432.02 210.93L432.02 210.95L432.02 210.96L432.01 210.97L432.01 211L432.01 211.02L432.01 211.05L432.01 211.06L432 211.08L432 211.09L432 211.1L432 211.12L432 211.13L432 211.15L432 211.16L432.4 210.97L432.8 210.78L433.2 210.6L433.6 210.42L434.01 210.25L434.41 210.08L434.82 209.91L435.24 209.75L435.65 209.6L436.07 209.44L436.48 209.3L436.9 209.15L437.32 209.02L437.75 208.88L438.17 208.75L438.6 208.63L439.03 208.51L439.46 208.39L439.89 208.28L440.33 208.18L440.76 208.07L441.2 207.98L441.64 207.89L442.08 207.8L442.52 207.72L442.96 207.64L443.4 207.57L443.85 207.51L444.3 207.44L444.75 207.39L445.2 207.34L445.65 207.29L446.1 207.25L446.55 207.22L447.01 207.19L447.46 207.16L447.92 207.14L448.38 207.13L448.84 207.12L449.3 207.12L449.44 207.12L449.58 207.12L449.72 207.12L449.86 207.12L450 207.12L450.13 207.12L450.27 207.13L450.41 207.13L450.55 207.14L450.69 207.14L450.83 207.15L450.97 207.15L451.11 207.16L451.25 207.17L451.39 207.17L451.53 207.18L451.67 207.19L451.81 207.2L451.95 207.21L452.09 207.22L452.23 207.23L452.37 207.24L452.51 207.25L452.65 207.26L452.79 207.28L452.93 207.29L453.07 207.3L453.21 207.32L453.35 207.33L453.49 207.35L453.63 207.36L453.77 207.38L453.91 207.39L454.05 207.41L454.19 207.43L454.33 207.44L454.47 207.46L454.61 207.48L454.75 207.5L454.89 207.52L456.37 207.76L457.83 208.05L459.26 208.39L460.67 208.78L462.06 209.22L463.43 209.71L464.76 210.24L466.08 210.82L467.36 211.44L468.62 212.11L469.84 212.82L471.04 213.57L472.21 214.36L473.34 215.19L474.45 216.05L475.52 216.96L476.55 217.9L477.56 218.87L478.52 219.88L479.45 220.92L480.35 221.99L481.2 223.09L482.02 224.22L482.79 225.38L483.53 226.57L484.22 227.78L484.88 229.02L485.48 230.28L486.05 231.56L486.57 232.86L487.04 234.19L487.47 235.53L487.85 236.9L488.19 238.28L488.47 239.67L488.71 241.08L488.89 242.51L489.02 243.95L489.11 245.4L489.13 246.86L489.13 246.99L489.13 247.13L489.13 247.27L489.13 247.41L489.13 247.54L489.13 247.68L489.13 247.82L489.12 247.96L489.12 248.1L489.12 248.23L489.11 248.37L489.11 248.51L489.1 248.65L489.09 248.79L489.09 248.93L489.08 249.07L489.07 249.2L489.06 249.34L489.05 249.48L489.05 249.62L489.04 249.76L489.03 249.9L489.01 250.04L489 250.18L488.99 250.32L488.98 250.46L488.97 250.6L488.95 250.74L488.94 250.88L488.93 251.02L488.91 251.16L488.9 251.3L488.88 251.44L488.86 251.59L488.85 251.73L488.83 251.87L488.81 252.01L488.79 252.15L488.78 252.29L488.76 252.43L487.7 420.63L487.62 424.4L487.4 428.12L487.02 431.81L486.5 435.45L485.84 439.04L485.04 442.58L484.11 446.07L483.04 449.5L481.84 452.88L480.52 456.19L479.07 459.43L477.5 462.61L475.82 465.72L474.01 468.75L472.1 471.71L470.07 474.58L467.94 477.38L465.71 480.08L463.38 482.7L460.94 485.23L458.42 487.66L455.8 490L453.09 492.23L450.3 494.36L447.42 496.39L444.47 498.3L441.44 500.11L438.33 501.79L435.15 503.36L431.91 504.81L428.6 506.14L425.22 507.34L421.79 508.4L418.3 509.34L414.76 510.14L411.17 510.8L407.52 511.32L403.84 511.7L400.11 511.92L396.35 512L254.66 511.99L254.61 511.99L254.53 511.99L254.49 511.99L254.45 511.99L254.4 511.99L254.36 511.99L254.31 511.99L254.26 511.99L254.21 511.99L254.19 511.99L254.13 511.99L254.11 511.99L254.08 511.99L254.05 511.99L254.02 511.99L253.99 511.99L253.97 511.99L253.94 511.99L253.91 511.99L253.87 512L253.84 512L253.81 512L253.78 512L253.75 512L253.71 512L253.68 512L253.65 512L253.52 512L251.45 511.97L249.41 511.89L247.38 511.76L245.38 511.57L243.4 511.33L241.43 511.05L239.49 510.71L237.57 510.32L235.67 509.89L233.8 509.41L231.94 508.88L230.1 508.31L228.29 507.69L226.5 507.03L224.72 506.32L222.97 505.58L221.24 504.79L219.54 503.96L217.85 503.09L216.18 502.19L214.54 501.24L212.92 500.26L211.31 499.24L209.73 498.19L208.18 497.1L206.64 495.98L205.12 494.83L203.63 493.64L202.15 492.43L200.7 491.18L199.27 489.9L197.86 488.59L196.48 487.26L195.11 485.9L193.76 484.51L192.44 483.1L191.14 481.66L189.86 480.2L188.6 478.72L187.37 477.21L186.14 475.68L184.93 474.12L183.74 472.55L182.56 470.95L181.4 469.33L180.26 467.7L179.14 466.04L178.04 464.37L176.95 462.68L175.88 460.97L174.82 459.25L173.79 457.51L172.77 455.75L171.76 453.98L170.77 452.2L169.8 450.4L168.84 448.59L167.9 446.77L166.97 444.94L166.06 443.09L165.16 441.24L164.28 439.37L163.41 437.49L162.56 435.61L161.72 433.72L160.89 431.82L160.08 429.91L159.29 428L158.5 426.08L157.73 424.15L156.98 422.22L156.23 420.29L155.5 418.35L154.79 416.41L154.08 414.46L153.39 412.52L152.71 410.57L152.04 408.62L151.39 406.67L150.75 404.72L149.5 400.83L148.3 396.95L147.15 393.08L146.04 389.23L144.98 385.39L143.96 381.59L142.98 377.81L142.05 374.07L141.16 370.37L140.3 366.72L139.49 363.11L138.72 359.56L137.98 356.07L137.28 352.64L136.62 349.28L135.99 345.99L135.4 342.79L134.85 339.66L134.32 336.62L133.83 333.67L133.37 330.82L132.94 328.07L132.54 325.43L132.17 322.9L131.83 320.48L131.52 318.19L131.23 316.01L130.97 313.97L130.74 312.06L130.52 310.29L130.34 308.67L130.17 307.19L130.03 305.87L129.91 304.7L129.81 303.7L129.72 302.86L129.66 302.2L129.62 301.71L129.59 301.4L129.58 301.28L129.58 301.27L129.58 301.26L129.58 301.25L129.58 301.24L129.58 301.23L129.58 301.22L129.58 301.22L129.58 301.2L129.59 301.19L129.59 301.16L129.59 301.16L129.6 301.14L129.6 301.13L129.6 301.12L129.6 301.12L129.6 301.11L129.6 301.1L129.6 301.08L129.6 301.01L129.59 300.94L129.59 300.87L129.59 300.8L129.59 300.73L129.59 300.66L129.58 300.58L129.58 300.51L129.59 300.44L129.59 300.37L129.59 300.3L129.59 300.23L129.59 300.16L129.6 300.09L129.6 300.02L129.6 299.95L129.61 299.88L129.62 299.81L129.62 299.74L129.63 299.67L129.64 299.6L129.64 299.53L129.65 299.46L129.66 299.39L129.67 299.32L129.68 299.25L129.69 299.19L129.7 299.12L129.72 299.05L129.73 298.98L129.74 298.91L129.76 298.84L129.77 298.78L129.79 298.71L129.8 298.64L129.82 298.57L129.84 298.5L129.85 298.44L129.87 298.37L129.89 298.3L129.89 298.3L129.9 298.29L129.9 298.29L129.9 298.28L129.9 298.28L129.91 298.27L129.91 298.25L129.92 298.24L129.92 298.24L129.92 298.23L129.94 298.21L129.94 298.19L129.95 298.18L129.96 298.16L129.96 298.15L129.96 298.14L129.97 298.13L129.97 298.12L129.97 298.12L129.97 298.11L129.98 298.1L130 298.03L130.02 297.97L130.04 297.9L130.07 297.83L130.09 297.76L130.12 297.69L130.14 297.63L130.17 297.56L130.19 297.49L130.22 297.42L130.25 297.36L130.28 297.29L130.31 297.22L130.34 297.16L130.37 297.09L130.4 297.03L130.43 296.96L130.46 296.89L130.49 296.83L130.52 296.76L130.56 296.7L130.59 296.64L130.63 296.57L130.66 296.51L130.7 296.44L130.73 296.38L130.77 296.32L130.81 296.26L130.85 296.19L130.89 296.13L130.93 296.07L130.97 296.01L131.01 295.95L131.05 295.89L131.09 295.83L131.13 295.77L131.17 295.71L131.22 295.65L131.26 295.59L131.31 295.53L131.31 295.52L133.71 292.4L136.01 289.32L138.21 286.27L140.32 283.26L142.34 280.28L144.27 277.35L146.12 274.46L147.87 271.61L149.55 268.8L151.14 266.05L152.65 263.34L154.09 260.68L155.45 258.08L156.73 255.52L157.95 253.03L159.1 250.59L160.17 248.21L161.19 245.89L162.14 243.63L163.02 241.43L163.85 239.3L164.62 237.24L165.34 235.25L166 233.32L166.61 231.47L167.17 229.69L167.69 227.99L168.16 226.37L168.58 224.82L168.97 223.36L169.31 221.97L169.62 220.68L169.9 219.46L170.14 218.34L170.34 217.3L170.52 216.35L170.67 215.5L170.8 214.74L170.9 214.08L170.99 213.51L171 213.44L171.01 213.37L171.02 213.3L171.03 213.23L171.03 213.17L171.04 213.11L171.05 213.05L171.06 212.99L171.06 212.94L171.07 212.89L171.08 212.84L171.08 212.79L171.09 212.75L171.09 212.7L171.1 212.66L171.1 212.63L171.11 212.59L171.11 212.55L171.11 212.52L171.12 212.49L171.12 212.46L171.12 212.43L171.13 212.41L171.13 212.36L171.13 212.34L171.14 212.33L171.14 212.29L171.14 212.27L171.14 212.25L171.14 212.24L171.15 212.22L171.17 211.99L171.19 211.77L171.23 211.55L171.27 211.33L171.31 211.12L171.36 210.9L171.41 210.69L171.48 210.48L171.54 210.27L171.61 210.06L171.69 209.86L171.77 209.66L171.86 209.46L171.95 209.26L172.05 209.07L172.15 208.88L172.26 208.69L172.37 208.5L172.49 208.32L172.61 208.14L172.74 207.97L172.87 207.8L173.01 207.63L173.15 207.46L173.29 207.3L173.44 207.14L173.59 206.99L173.75 206.84L173.91 206.69L174.08 206.55L174.25 206.41L174.42 206.28L174.6 206.15L174.78 206.03L174.96 205.91L175.15 205.79L175.34 205.68L175.54 205.57L175.74 205.47L175.94 205.37L176.06 205.32L176.17 205.27L176.28 205.22L176.4 205.17L176.51 205.12L176.62 205.07L176.74 205.02L176.85 204.97L176.96 204.93L177.07 204.88L177.18 204.83L177.3 204.78L177.41 204.74L177.52 204.69L177.63 204.64L177.74 204.6L177.85 204.55L177.96 204.51L178.08 204.46L178.19 204.42L178.3 204.37L178.41 204.33L178.52 204.29L178.63 204.24L178.74 204.2L178.85 204.16L178.96 204.11L179.07 204.07L179.18 204.03L179.29 203.99L179.4 203.94L179.51 203.9L179.62 203.86L179.73 203.82L179.84 203.77L179.95 203.73L180.06 203.69L180.17 203.65L180.28 203.61L180.39 203.57L180.67 203.46L180.95 203.36L181.22 203.25L181.5 203.15L181.77 203.05L182.05 202.96L182.32 202.86L182.6 202.76L182.87 202.67L183.14 202.58L183.41 202.49L183.68 202.4L183.95 202.32L184.22 202.23L184.49 202.15L184.76 202.07L185.02 201.99L185.29 201.91L185.56 201.83L185.82 201.76L186.09 201.68L186.35 201.61L186.62 201.54L186.88 201.47L187.14 201.4L187.4 201.34L187.66 201.27L187.92 201.21L188.18 201.15L188.44 201.09L188.7 201.03L188.96 200.98L189.22 200.92L189.48 200.87L189.73 200.81L189.99 200.76L190.24 200.71L190.5 200.66L190.75 200.62L191.01 200.57L157.75 62.66L157.68 62.4L157.61 62.15L157.55 61.89L157.49 61.63L157.42 61.37L157.36 61.11L157.31 60.85L157.25 60.59L157.2 60.33L157.14 60.07L157.09 59.81L157.04 59.55L157 59.29L156.95 59.03L156.91 58.78L156.87 58.52L156.83 58.26L156.79 58L156.75 57.74L156.72 57.48L156.68 57.22L156.65 56.96L156.62 56.7L156.59 56.45L156.57 56.19L156.54 55.93L156.52 55.67L156.5 55.41L156.48 55.16L156.46 54.9L156.45 54.64L156.43 54.38L156.42 54.13L156.41 53.87L156.4 53.61L156.39 53.36L156.39 53.1L156.38 52.84L156.38 52.59L156.38 52.33L156.4 51.02L156.46 49.71L156.57 48.4L156.72 47.11L156.91 45.83L157.15 44.55L157.42 43.29L157.73 42.04L158.09 40.8L158.48 39.58L158.91 38.37L159.38 37.18L159.89 36.01L160.44 34.85L161.02 33.71L161.63 32.59L162.29 31.49L162.97 30.41L163.7 29.35L164.45 28.32L165.24 27.31L166.06 26.33L166.92 25.37L167.8 24.44L168.72 23.53L169.67 22.66L170.64 21.81L171.65 21L172.69 20.21L173.75 19.46L174.85 18.74L175.97 18.06L177.11 17.41L178.29 16.79L179.48 16.21L180.71 15.67L181.96 15.17L183.23 14.71L184.53 14.29L185.85 13.91L186.11 13.84L186.36 13.77L186.62 13.71L186.88 13.65L187.14 13.58L187.4 13.52L187.66 13.47L187.92 13.41L188.18 13.36L188.44 13.3L188.7 13.25L188.96 13.21L189.22 13.16L189.48 13.11L189.73 13.07L189.99 13.03L190.25 12.99L190.51 12.95L190.77 12.91L191.03 12.88L191.29 12.85L191.55 12.81L191.8 12.79L192.06 12.76L192.32 12.73L192.58 12.71L192.84 12.68L193.09 12.66L193.35 12.64L193.61 12.63L193.87 12.61L194.12 12.6L194.38 12.58L194.64 12.57L194.89 12.56L195.15 12.56L195.41 12.55L195.66 12.55L195.92 12.54L196.17 12.54L197.49 12.57L198.8 12.63L200.1 12.74L201.4 12.89L202.68 13.08L203.96 13.32L205.22 13.59L206.47 13.91L207.71 14.26L208.93 14.65L210.14 15.09L211.33 15.56L212.51 16.07L213.67 16.61L214.81 17.19L215.93 17.81L217.03 18.46L218.11 19.15L219.17 19.87L220.2 20.63L221.21 21.42L222.2 22.24L223.15 23.1L224.09 23.98L224.99 24.9L225.87 25.85L226.71 26.83L227.53 27.83L228.31 28.87L229.06 29.93L229.78 31.03L230.47 32.15L231.11 33.3L231.73 34.47L232.3 35.67L232.84 36.89L233.34 38.14L233.8 39.42L234.22 40.71L234.6 42.04L284.11 223.44L312.56 34.29L312.79 32.81L313.08 31.35L313.42 29.91L313.81 28.49L314.24 27.1L314.73 25.73L315.26 24.39L315.84 23.07L316.46 21.78L317.13 20.52L317.84 19.29L318.59 18.09L319.38 16.93L320.21 15.79L321.08 14.68L321.98 13.61L322.92 12.57L323.9 11.57L324.91 10.6L325.95 9.67L327.02 8.78L328.12 7.92L329.26 7.11L330.42 6.33L331.61 5.59L332.82 4.9L334.06 4.25L335.32 3.64L336.6 3.07L337.91 2.56L339.24 2.08L340.59 1.65L341.95 1.27L343.33 0.94L344.73 0.66L346.14 0.42L347.57 0.24L349.01 0.11L350.46 0.03L351.92 0L352.06 0L352.2 0ZM350.22 16.56L349.38 16.64L348.54 16.75L347.72 16.88L346.9 17.05L346.09 17.24L345.29 17.47L344.5 17.72L343.73 18L342.96 18.3L342.21 18.63L341.47 18.99L340.74 19.37L340.03 19.78L339.34 20.21L338.66 20.67L337.99 21.15L337.34 21.65L336.71 22.17L336.1 22.72L335.51 23.29L334.94 23.88L334.39 24.49L333.85 25.12L333.35 25.77L332.86 26.44L332.39 27.12L331.95 27.83L331.54 28.55L331.15 29.29L330.78 30.05L330.44 30.82L330.13 31.61L329.84 32.42L329.59 33.24L329.36 34.07L329.16 34.92L328.99 35.78L328.85 36.65L299.33 233.06L296.43 252.37L295.7 257.27L295.64 257.61L295.57 257.94L295.49 258.26L295.39 258.58L295.28 258.89L295.17 259.19L295.04 259.49L294.89 259.78L294.74 260.07L294.58 260.35L294.41 260.62L294.22 260.88L294.03 261.13L293.83 261.38L293.62 261.62L293.4 261.85L293.17 262.07L292.94 262.28L292.69 262.48L292.44 262.67L292.18 262.86L291.92 263.03L291.65 263.19L291.37 263.35L291.09 263.49L290.8 263.62L290.5 263.74L290.2 263.85L289.9 263.95L289.59 264.03L289.28 264.11L288.96 264.17L288.64 264.22L288.31 264.26L287.99 264.28L287.66 264.29L287.33 264.29L286.99 264.28L286.66 264.25L286.32 264.2L286.31 264.2L286.3 264.2L286.29 264.2L286.28 264.2L286.27 264.19L286.27 264.19L286.26 264.19L286.25 264.19L286.24 264.18L286.22 264.18L286.21 264.18L286.2 264.17L286.18 264.17L286.16 264.16L286.12 264.15L286.09 264.14L286.08 264.14L286.07 264.13L286.05 264.13L286.04 264.12L286.03 264.12L286.02 264.12L286.02 264.12L286.01 264.11L286 264.11L285.99 264.11L285.98 264.11L285.97 264.11L285.72 264.15L285.47 264.18L285.23 264.21L284.98 264.23L284.73 264.24L284.48 264.25L284.24 264.24L284 264.23L283.75 264.21L283.51 264.19L283.27 264.16L283.03 264.12L282.8 264.07L282.56 264.02L282.33 263.96L282.1 263.9L281.87 263.83L281.65 263.75L281.43 263.66L281.21 263.57L280.99 263.47L280.77 263.37L280.56 263.26L280.36 263.14L280.15 263.02L279.95 262.89L279.75 262.76L279.56 262.62L279.37 262.47L279.19 262.32L279.01 262.17L278.83 262.01L278.66 261.84L278.49 261.67L278.33 261.49L278.17 261.31L278.02 261.12L277.87 260.93L277.73 260.73L277.59 260.53L277.56 260.48L277.52 260.42L277.49 260.37L277.46 260.32L277.42 260.26L277.39 260.21L277.36 260.15L277.32 260.1L277.29 260.04L277.26 259.99L277.23 259.93L277.2 259.88L277.17 259.82L277.14 259.77L277.11 259.71L277.08 259.65L277.05 259.6L277.02 259.54L276.99 259.48L276.97 259.43L276.94 259.37L276.91 259.31L276.89 259.25L276.86 259.19L276.83 259.13L276.81 259.08L276.78 259.02L276.76 258.96L276.74 258.9L276.71 258.84L276.69 258.77L276.67 258.71L276.65 258.65L276.63 258.59L276.61 258.53L276.59 258.47L276.57 258.4L276.55 258.34L276.53 258.28L276.51 258.21L272.81 244.63L218.69 46.33L218.47 45.55L218.22 44.79L217.95 44.05L217.66 43.31L217.35 42.59L217.01 41.89L216.65 41.2L216.27 40.53L215.87 39.87L215.45 39.23L215 38.6L214.54 38L214.07 37.41L213.57 36.83L213.06 36.28L212.53 35.74L211.98 35.22L211.42 34.72L210.84 34.24L210.25 33.77L209.64 33.33L209.02 32.91L208.39 32.5L207.74 32.12L207.08 31.76L206.42 31.42L205.74 31.1L205.05 30.8L204.35 30.53L203.64 30.27L202.92 30.04L202.2 29.83L201.46 29.65L200.72 29.49L199.98 29.35L199.23 29.24L198.47 29.15L197.71 29.09L196.94 29.05L196.17 29.04L196.02 29.04L195.87 29.04L195.72 29.04L195.57 29.04L195.42 29.05L195.27 29.05L195.12 29.06L194.97 29.07L194.82 29.07L194.67 29.08L194.52 29.09L194.37 29.1L194.22 29.12L194.07 29.13L193.92 29.14L193.77 29.16L193.62 29.17L193.47 29.19L193.32 29.21L193.17 29.23L193.02 29.25L192.86 29.27L192.71 29.29L192.56 29.32L192.41 29.34L192.26 29.36L192.11 29.39L191.96 29.42L191.81 29.45L191.66 29.48L191.51 29.51L191.36 29.54L191.2 29.57L191.05 29.61L190.9 29.64L190.75 29.68L190.6 29.72L190.45 29.76L190.3 29.8L190.15 29.84L189.37 30.06L188.61 30.3L187.87 30.57L187.13 30.86L186.42 31.18L185.71 31.52L185.03 31.88L184.35 32.26L183.7 32.66L183.06 33.08L182.43 33.52L181.82 33.98L181.23 34.46L180.66 34.95L180.11 35.47L179.57 36L179.05 36.54L178.55 37.1L178.07 37.68L177.6 38.27L177.16 38.88L176.74 39.5L176.33 40.13L175.95 40.78L175.59 41.43L175.25 42.1L174.93 42.78L174.63 43.47L174.35 44.17L174.1 44.88L173.87 45.59L173.66 46.32L173.48 47.05L173.32 47.79L173.18 48.53L173.06 49.29L172.98 50.04L172.91 50.8L172.87 51.57L172.86 52.34L172.86 52.49L172.86 52.64L172.86 52.79L172.87 52.94L172.87 53.09L172.88 53.24L172.88 53.39L172.89 53.54L172.9 53.69L172.91 53.84L172.92 54L172.93 54.15L172.95 54.3L172.96 54.45L172.97 54.61L172.99 54.76L173.01 54.91L173.03 55.07L173.05 55.22L173.07 55.37L173.09 55.53L173.11 55.69L173.14 55.84L173.16 56L173.19 56.16L173.21 56.31L173.24 56.47L173.27 56.63L173.3 56.79L173.33 56.95L173.37 57.11L173.4 57.27L173.44 57.44L173.47 57.6L173.51 57.76L173.55 57.93L173.59 58.09L173.63 58.26L173.67 58.43L173.72 58.6L208.16 201.41L208.51 201.53L208.86 201.64L209.2 201.77L209.54 201.9L209.88 202.03L210.22 202.16L210.55 202.3L210.88 202.45L211.21 202.59L211.53 202.75L211.85 202.9L212.17 203.06L212.48 203.22L212.79 203.39L213.1 203.55L213.41 203.73L213.71 203.9L214.01 204.08L214.31 204.26L214.61 204.45L214.9 204.63L215.19 204.82L215.47 205.02L215.76 205.21L216.04 205.41L216.31 205.62L216.59 205.82L216.86 206.03L217.13 206.24L217.39 206.45L217.66 206.67L217.92 206.88L218.18 207.1L218.43 207.33L218.68 207.55L218.93 207.78L219.18 208L219.42 208.24L219.66 208.47L219.9 208.7L220.01 208.81L220.11 208.91L220.22 209.02L220.32 209.13L220.43 209.23L220.53 209.34L220.63 209.45L220.74 209.55L220.84 209.66L220.94 209.77L221.04 209.88L221.14 209.99L221.25 210.09L221.35 210.2L221.44 210.31L221.54 210.42L221.64 210.53L221.74 210.64L221.84 210.75L221.93 210.86L222.03 210.97L222.13 211.09L222.22 211.2L222.32 211.31L222.41 211.42L222.5 211.53L222.59 211.65L222.69 211.76L222.78 211.87L222.87 211.99L222.96 212.1L223.05 212.21L223.13 212.33L223.22 212.44L223.31 212.56L223.39 212.67L223.48 212.79L223.56 212.91L223.65 213.02L223.73 213.14L224.18 213.81L224.61 214.48L225.04 215.16L225.44 215.84L225.84 216.53L226.22 217.22L226.59 217.91L226.95 218.61L227.3 219.31L227.63 220.02L227.95 220.73L228.26 221.44L228.56 222.15L228.85 222.86L229.13 223.58L229.39 224.3L229.65 225.01L229.9 225.73L230.13 226.45L230.36 227.17L230.57 227.88L230.78 228.6L230.98 229.32L231.17 230.03L231.35 230.74L231.52 231.45L231.68 232.16L231.84 232.87L231.98 233.57L232.12 234.27L232.25 234.96L232.38 235.66L232.5 236.34L232.61 237.03L232.71 237.7L232.81 238.38L232.9 239.04L232.99 239.71L233.07 240.36L233.14 241.01L233.15 241.1L233.17 241.19L233.18 241.29L233.19 241.38L233.2 241.47L233.21 241.56L233.22 241.65L233.23 241.74L233.23 241.83L233.24 241.92L233.25 242.01L233.26 242.1L233.27 242.2L233.28 242.29L233.29 242.38L233.3 242.46L233.31 242.55L233.31 242.64L233.32 242.73L233.33 242.82L233.34 242.91L233.35 243L233.36 243.09L233.36 243.18L233.37 243.27L233.38 243.35L233.39 243.44L233.39 243.53L233.4 243.62L233.41 243.7L233.42 243.79L233.42 243.88L233.43 243.97L233.44 244.05L233.45 244.14L233.45 244.23L233.46 244.31L233.47 244.4L233.47 244.49L233.48 244.57L233.49 244.65L233.49 244.73L233.5 244.81L233.5 244.89L233.51 244.97L233.51 245.05L233.52 245.13L233.53 245.21L233.53 245.29L233.54 245.37L233.54 245.44L233.55 245.52L233.55 245.6L233.56 245.67L233.56 245.75L233.57 245.83L233.57 245.9L233.58 245.98L233.58 246.06L233.59 246.13L233.59 246.21L233.6 246.28L233.6 246.36L233.61 246.43L233.61 246.51L233.62 246.58L233.62 246.66L233.62 246.73L233.63 246.81L233.63 246.88L233.64 246.96L233.64 247.03L233.65 247.11L233.65 247.18L233.65 247.25L233.66 247.33L233.66 247.4L233.67 247.48L233.67 247.55L233.67 247.63L233.68 247.79L233.69 247.95L233.7 248.11L233.7 248.27L233.71 248.43L233.72 248.59L233.73 248.75L233.73 248.9L233.74 249.06L233.75 249.22L233.75 249.37L233.76 249.53L233.76 249.68L233.77 249.83L233.78 249.98L233.78 250.13L233.79 250.28L233.79 250.43L233.8 250.58L233.8 250.72L233.81 250.87L233.81 251.01L233.82 251.15L233.82 251.3L233.83 251.44L233.83 251.58L233.83 251.71L233.84 251.85L233.84 251.99L233.84 252.12L233.85 252.25L233.85 252.39L233.85 252.52L233.86 252.65L233.86 252.77L233.86 252.9L233.87 253.02L233.87 253.15L233.87 253.27L233.87 253.39L233.87 253.44L233.87 253.49L233.87 253.55L233.87 253.6L233.87 253.65L233.87 253.7L233.87 253.75L233.87 253.8L233.87 253.85L233.87 253.9L233.87 253.95L233.87 254L233.87 254.05L233.87 254.1L233.87 254.15L233.87 254.2L233.87 254.25L233.87 254.29L233.87 254.34L233.87 254.39L233.87 254.44L233.87 254.48L233.87 254.53L233.87 254.58L233.87 254.62L233.87 254.67L233.86 254.71L233.86 254.76L233.86 254.81L233.86 254.85L233.86 254.89L233.86 254.94L233.86 254.98L233.86 255.03L233.86 255.07L233.86 255.11L233.86 255.16L233.86 255.2L233.86 255.24L233.86 255.28L233.85 255.41L233.85 255.53L233.85 255.65L233.85 255.77L233.84 255.88L233.84 255.99L233.84 256.1L233.83 256.21L233.83 256.31L233.83 256.41L233.83 256.51L233.82 256.61L233.82 256.7L233.82 256.79L233.81 256.88L233.81 256.96L233.81 257.04L233.8 257.12L233.8 257.2L233.8 257.27L233.8 257.34L233.79 257.41L233.79 257.47L233.79 257.53L233.78 257.59L233.78 257.64L233.78 257.69L233.78 257.74L233.77 257.79L233.77 257.83L233.77 257.87L233.77 257.91L233.77 257.94L233.76 257.97L233.76 258.04L233.76 258.06L233.76 258.08L233.75 258.16L233.75 258.25L233.74 258.33L233.73 258.41L233.72 258.49L233.71 258.57L233.7 258.65L233.69 258.73L233.68 258.81L233.66 258.88L233.65 258.96L233.64 259.04L233.62 259.12L233.61 259.2L233.59 259.27L233.57 259.35L233.56 259.43L233.54 259.5L233.52 259.58L233.5 259.66L233.48 259.73L233.46 259.81L233.43 259.89L233.41 259.96L233.39 260.04L233.36 260.11L233.34 260.19L233.31 260.26L233.29 260.34L233.26 260.41L233.23 260.49L233.2 260.56L233.17 260.64L233.14 260.71L233.11 260.79L233.08 260.86L233.04 260.94L233.01 261.01L232.97 261.09L232.94 261.16L232.92 261.21L232.88 261.28L232.87 261.31L232.86 261.33L232.84 261.36L232.83 261.39L232.82 261.41L232.8 261.44L232.79 261.47L232.78 261.5L232.76 261.52L232.75 261.54L232.73 261.59L232.62 261.82L232.51 262.05L232.4 262.28L232.29 262.51L232.18 262.74L232.07 262.96L231.96 263.19L231.85 263.42L231.74 263.65L231.63 263.87L231.52 264.1L231.42 264.32L231.31 264.55L231.2 264.77L231.1 265L230.99 265.22L230.88 265.45L230.78 265.67L230.67 265.89L230.57 266.12L230.47 266.34L230.36 266.56L230.26 266.78L230.16 267L230.05 267.22L229.95 267.44L229.85 267.66L229.75 267.88L229.65 268.1L229.55 268.32L229.44 268.53L229.34 268.75L229.24 268.97L229.14 269.19L229.05 269.4L228.95 269.62L228.85 269.83L228.75 270.05L228.65 270.26L228.55 270.48L228.49 270.62L228.43 270.75L228.37 270.89L228.3 271.03L228.24 271.16L228.18 271.3L228.12 271.43L228.06 271.57L228 271.7L227.95 271.84L227.89 271.97L227.83 272.1L227.77 272.24L227.71 272.37L227.66 272.5L227.6 272.63L227.54 272.76L227.49 272.89L227.43 273.02L227.37 273.16L227.32 273.29L227.26 273.42L227.21 273.55L227.15 273.68L227.1 273.81L227.04 273.94L226.99 274.06L226.93 274.19L226.87 274.32L226.82 274.45L226.71 274.71L226.65 274.84L226.6 274.97L226.54 275.1L226.49 275.23L226.43 275.36L226.38 275.49L226.32 275.62L226.27 275.75L231.39 296.25L233.58 308.46L238.61 336.48L239.06 336.52L239.54 336.56L240.03 336.6L240.53 336.65L241.04 336.7L241.57 336.75L242.11 336.81L242.66 336.87L243.22 336.94L243.8 337.01L244.38 337.08L244.98 337.16L245.59 337.24L246.21 337.33L246.85 337.42L247.49 337.51L248.14 337.61L248.8 337.72L249.48 337.83L250.16 337.95L250.85 338.07L251.55 338.2L252.26 338.33L252.97 338.47L253.7 338.62L254.43 338.77L255.17 338.93L255.92 339.09L256.67 339.26L257.43 339.44L258.2 339.62L258.98 339.81L259.76 340.01L260.55 340.21L261.34 340.43L262.14 340.65L262.94 340.87L263.75 341.11L264.56 341.35L265.38 341.6L266.67 342.01L267.98 342.44L269.3 342.9L270.62 343.38L271.96 343.88L273.3 344.41L274.64 344.96L275.99 345.54L277.35 346.14L278.7 346.77L280.06 347.42L281.41 348.11L282.77 348.82L284.12 349.56L285.46 350.33L286.8 351.13L288.13 351.96L289.45 352.82L290.77 353.72L292.07 354.64L293.36 355.6L294.63 356.59L295.9 357.62L297.14 358.68L298.37 359.78L299.58 360.91L300.76 362.07L301.93 363.28L303.08 364.52L304.2 365.8L305.29 367.12L306.36 368.47L307.4 369.87L308.41 371.31L309.4 372.78L310.35 374.3L311.26 375.86L312.15 377.47L313 379.11L313.81 380.8L313.94 381.11L314.07 381.43L314.17 381.74L314.27 382.06L314.35 382.38L314.42 382.7L314.47 383.02L314.52 383.34L314.55 383.67L314.56 383.99L314.57 384.31L314.56 384.63L314.54 384.95L314.51 385.26L314.46 385.58L314.4 385.89L314.34 386.2L314.26 386.5L314.16 386.81L314.06 387.1L313.95 387.4L313.82 387.69L313.68 387.97L313.53 388.25L313.37 388.53L313.21 388.8L313.02 389.06L312.83 389.31L312.63 389.56L312.42 389.8L312.2 390.04L311.97 390.26L311.73 390.48L311.48 390.69L311.22 390.89L310.95 391.08L310.67 391.26L310.38 391.43L310.08 391.59L309.77 391.74L309.69 391.78L309.61 391.81L309.52 391.85L309.44 391.89L309.35 391.92L309.27 391.95L309.18 391.99L309.1 392.02L309.01 392.05L308.93 392.08L308.84 392.11L308.75 392.13L308.67 392.16L308.58 392.19L308.5 392.21L308.41 392.23L308.32 392.26L308.24 392.28L308.15 392.3L308.07 392.32L307.98 392.34L307.89 392.35L307.81 392.37L307.72 392.39L307.63 392.4L307.55 392.41L307.46 392.43L307.37 392.44L307.29 392.45L307.2 392.46L307.12 392.47L307.03 392.48L306.94 392.48L306.86 392.49L306.77 392.49L306.68 392.5L306.6 392.5L306.51 392.5L306.42 392.5L306.34 392.5L306.1 392.5L305.87 392.49L305.64 392.47L305.41 392.45L305.18 392.42L304.95 392.39L304.72 392.34L304.49 392.29L304.27 392.24L304.04 392.18L303.82 392.11L303.6 392.04L303.39 391.96L303.17 391.87L302.96 391.78L302.75 391.68L302.54 391.58L302.34 391.47L302.14 391.35L301.94 391.23L301.74 391.11L301.55 390.97L301.36 390.84L301.18 390.69L301 390.54L300.82 390.39L300.65 390.23L300.48 390.07L300.32 389.9L300.16 389.72L300 389.54L299.85 389.35L299.71 389.16L299.57 388.97L299.43 388.77L299.3 388.56L299.18 388.35L299.06 388.14L298.95 387.92L298.84 387.69L298.25 386.45L297.62 385.23L296.97 384.04L296.29 382.88L295.58 381.75L294.85 380.65L294.09 379.57L293.31 378.52L292.51 377.5L291.68 376.51L290.83 375.54L289.96 374.6L289.07 373.68L288.16 372.79L287.23 371.92L286.29 371.08L285.33 370.26L284.35 369.47L283.35 368.7L282.35 367.95L281.33 367.23L280.29 366.53L279.25 365.85L278.19 365.19L277.12 364.55L276.05 363.94L274.96 363.34L273.87 362.77L272.77 362.21L271.67 361.68L270.56 361.16L269.44 360.67L268.33 360.19L267.21 359.73L266.08 359.29L264.96 358.86L263.84 358.46L262.71 358.07L261.59 357.69L260.47 357.34L259.49 357.04L258.52 356.75L257.55 356.47L256.59 356.21L255.63 355.96L254.69 355.73L253.75 355.5L252.82 355.29L251.91 355.08L251 354.89L250.11 354.71L249.23 354.54L248.37 354.37L247.51 354.22L246.68 354.08L245.86 353.95L245.06 353.82L244.27 353.7L243.51 353.59L242.76 353.49L242.03 353.4L241.32 353.31L240.64 353.24L239.98 353.16L239.34 353.1L238.72 353.04L238.13 352.98L237.56 352.94L237.02 352.89L236.5 352.85L236.01 352.82L235.55 352.79L235.12 352.77L234.72 352.74L234.35 352.73L234.01 352.71L233.71 352.7L233.43 352.69L233.19 352.68L232.98 352.68L232.96 352.68L232.94 352.68L232.92 352.69L232.9 352.69L232.88 352.69L232.86 352.7L232.84 352.7L232.82 352.7L232.8 352.7L232.77 352.71L232.75 352.71L232.73 352.71L232.71 352.71L232.69 352.72L232.67 352.72L232.65 352.72L232.62 352.72L232.6 352.73L232.58 352.73L232.56 352.73L232.54 352.73L232.52 352.73L232.49 352.74L232.47 352.74L232.45 352.74L232.43 352.74L232.41 352.74L232.39 352.74L232.37 352.75L232.34 352.75L232.32 352.75L232.3 352.75L232.28 352.75L232.26 352.75L232.21 352.76L232.17 352.76L232.13 352.76L232.11 352.76L232.1 352.76L232.09 352.77L232.08 352.77L232.07 352.77L232.06 352.77L232.05 352.77L232.04 352.77L232.03 352.78L232.02 352.78L232.01 352.78L232 352.78L231.98 352.78L231.96 352.79L231.95 352.79L231.91 352.8L231.9 352.8L231.88 352.81L231.87 352.81L231.86 352.81L231.85 352.81L231.83 352.82L231.82 352.82L231.81 352.82L231.8 352.82L231.79 352.82L231.78 352.82L231.77 352.83L231.76 352.83L231.75 352.83L231.74 352.83L231.73 352.83L231.72 352.83L231.7 352.83L231.69 352.83L231.68 352.83L231.67 352.83L231.66 352.83L231.65 352.83L231.62 352.82L231.6 352.82L231.59 352.82L231.58 352.82L231.57 352.82L231.52 352.82L231.46 352.82L231.41 352.82L231.35 352.81L231.29 352.81L231.24 352.81L231.18 352.81L231.12 352.8L231.07 352.8L231.01 352.79L230.95 352.79L230.9 352.78L230.84 352.78L230.79 352.77L230.73 352.77L230.67 352.76L230.62 352.75L230.56 352.75L230.51 352.74L230.45 352.73L230.39 352.72L230.34 352.72L230.28 352.71L230.23 352.7L230.17 352.69L230.11 352.68L230.06 352.67L230 352.65L229.95 352.64L229.89 352.63L229.84 352.62L229.78 352.6L229.73 352.59L229.67 352.58L229.61 352.56L229.56 352.55L229.5 352.53L229.45 352.52L229.39 352.5L229.34 352.48L226.6 351.67L210.88 347.02L210.41 346.85L210.14 346.76L210.11 346.75L210.09 346.75L210.06 346.74L210.04 346.73L210.01 346.73L209.99 346.72L209.96 346.71L209.93 346.7L209.91 346.69L209.88 346.68L209.85 346.67L209.82 346.66L209.79 346.65L209.76 346.64L209.73 346.63L209.7 346.62L209.67 346.61L209.64 346.6L209.61 346.59L209.58 346.57L209.55 346.56L209.51 346.55L209.48 346.53L209.45 346.52L209.41 346.5L209.38 346.49L209.34 346.47L209.31 346.45L209.27 346.44L209.24 346.42L209.2 346.4L209.16 346.39L209.13 346.37L209.09 346.35L209.05 346.33L209.01 346.31L208.98 346.29L208.94 346.27L208.9 346.25L208.86 346.23L208.61 346.08L208.35 345.92L208.08 345.74L207.8 345.55L207.51 345.34L207.21 345.11L206.91 344.86L206.6 344.6L206.28 344.32L205.95 344.02L205.63 343.7L205.3 343.36L204.96 343.01L204.63 342.63L204.29 342.24L203.96 341.83L203.62 341.4L203.28 340.95L202.95 340.48L202.62 339.99L202.3 339.48L201.97 338.95L201.66 338.4L201.35 337.83L201.04 337.23L200.75 336.62L200.46 335.99L200.18 335.34L199.92 334.66L199.66 333.96L199.41 333.24L199.18 332.5L198.96 331.74L198.76 330.96L198.56 330.15L198.39 329.32L198.23 328.47L198.09 327.59L197.97 326.7L197.86 325.77L197.85 325.65L197.84 325.52L197.82 325.4L197.81 325.27L197.8 325.14L197.79 325.02L197.78 324.89L197.76 324.76L197.75 324.63L197.74 324.5L197.73 324.38L197.72 324.25L197.71 324.12L197.7 323.99L197.69 323.86L197.68 323.73L197.67 323.6L197.67 323.47L197.66 323.33L197.65 323.2L197.64 323.07L197.63 322.94L197.63 322.8L197.62 322.67L197.62 322.54L197.61 322.4L197.61 322.27L197.6 322.13L197.6 321.99L197.6 321.86L197.59 321.72L197.59 321.58L197.59 321.44L197.59 321.3L197.59 321.16L197.59 321.02L197.59 320.88L197.59 320.74L197.59 320.6L197.59 320.46L197.6 319.64L197.62 318.81L197.65 317.97L197.69 317.11L197.75 316.24L197.81 315.35L197.89 314.45L197.98 313.53L198.08 312.59L198.2 311.64L198.33 310.67L198.47 309.68L198.62 308.68L198.79 307.66L198.98 306.62L199.18 305.57L199.39 304.49L199.62 303.4L199.86 302.29L200.12 301.16L200.4 300.02L200.69 298.85L201 297.67L201.32 296.47L201.66 295.24L202.02 294L202.39 292.74L202.78 291.46L203.19 290.15L203.62 288.83L204.07 287.48L204.53 286.12L205.01 284.73L205.51 283.33L206.03 281.9L206.57 280.45L207.13 278.97L207.71 277.48L208.31 275.96L208.93 274.42L209.04 274.16L209.14 273.91L209.25 273.65L209.36 273.39L209.46 273.13L209.57 272.87L209.68 272.61L209.78 272.35L209.89 272.09L210 271.83L210.11 271.56L210.22 271.3L210.33 271.04L210.44 270.77L210.55 270.51L210.67 270.24L210.78 269.98L210.89 269.71L211 269.45L211.12 269.18L211.23 268.91L211.35 268.64L211.46 268.37L211.58 268.1L211.7 267.83L211.82 267.56L211.93 267.29L212.05 267.01L212.17 266.74L212.29 266.46L212.41 266.19L212.53 265.91L212.66 265.64L212.78 265.36L212.9 265.08L213.03 264.8L213.15 264.52L213.28 264.24L213.41 263.96L213.53 263.67L213.6 263.54L213.66 263.4L213.72 263.27L213.78 263.13L213.85 263L213.91 262.86L213.97 262.72L214.04 262.59L214.1 262.45L214.16 262.31L214.23 262.18L214.29 262.04L214.36 261.9L214.42 261.76L214.49 261.62L214.55 261.48L214.62 261.34L214.68 261.2L214.75 261.06L214.81 260.92L214.88 260.78L214.95 260.64L215.01 260.5L215.08 260.36L215.14 260.22L215.21 260.08L215.28 259.94L215.34 259.8L215.41 259.66L215.47 259.52L215.54 259.38L215.61 259.24L215.67 259.09L215.74 258.95L215.81 258.81L215.87 258.67L215.94 258.53L216.01 258.39L216.14 258.1L216.17 258.04L216.2 257.97L216.23 257.91L216.26 257.84L216.29 257.78L216.32 257.71L216.35 257.65L216.38 257.58L216.41 257.52L216.44 257.46L216.47 257.39L216.5 257.33L216.53 257.26L216.56 257.2L216.59 257.13L216.62 257.07L216.68 256.94L216.71 256.88L216.74 256.81L216.77 256.75L216.8 256.68L216.83 256.62L216.86 256.55L216.89 256.49L216.92 256.43L216.95 256.36L216.98 256.3L217.01 256.23L217.04 256.16L217.07 256.1L217.1 256.03L217.13 255.97L217.17 255.9L217.2 255.84L217.23 255.77L217.26 255.7L217.29 255.63L217.32 255.57L217.36 255.5L217.36 255.48L217.36 255.31L217.36 255.26L217.36 255.22L217.36 255.17L217.37 255.08L217.37 254.99L217.37 254.94L217.37 254.89L217.37 254.84L217.37 254.79L217.37 254.74L217.37 254.69L217.37 254.64L217.37 254.59L217.37 254.54L217.37 254.49L217.37 254.43L217.38 254.38L217.38 254.32L217.38 254.27L217.38 254.21L217.38 254.16L217.38 254.1L217.38 254.05L217.38 253.99L217.38 253.93L217.38 253.87L217.38 253.81L217.38 253.75L217.38 253.69L217.38 253.63L217.38 253.57L217.38 253.51L217.38 253.45L217.38 253.38L217.39 253L217.39 252.6L217.39 252.18L217.39 251.75L217.38 251.3L217.37 250.84L217.36 250.37L217.34 249.88L217.32 249.38L217.29 248.87L217.26 248.35L217.23 247.81L217.19 247.27L217.14 246.72L217.1 246.16L217.04 245.59L216.99 245.02L216.92 244.43L216.86 243.84L216.79 243.25L216.71 242.65L216.63 242.04L216.54 241.43L216.45 240.82L216.35 240.2L216.25 239.58L216.15 238.96L216.03 238.34L215.91 237.71L215.79 237.09L215.66 236.47L215.52 235.85L215.38 235.23L215.23 234.61L215.08 233.99L214.92 233.38L214.75 232.77L214.58 232.17L214.4 231.57L214.22 230.98L214.14 230.74L214.06 230.51L213.98 230.27L213.9 230.04L213.82 229.8L213.74 229.57L213.66 229.34L213.57 229.11L213.49 228.88L213.4 228.66L213.32 228.43L213.23 228.21L213.14 227.98L213.05 227.76L212.96 227.54L212.86 227.32L212.77 227.11L212.68 226.89L212.58 226.68L212.48 226.47L212.38 226.26L212.28 226.05L212.18 225.84L212.08 225.64L211.98 225.44L211.87 225.24L211.77 225.04L211.66 224.84L211.55 224.65L211.44 224.46L211.33 224.27L211.21 224.08L211.1 223.89L210.99 223.71L210.87 223.53L210.75 223.35L210.63 223.18L210.51 223.01L210.39 222.84L210.26 222.67L210.22 222.61L210.17 222.54L210.13 222.48L210.08 222.42L210.03 222.36L209.99 222.3L209.94 222.24L209.9 222.18L209.85 222.12L209.8 222.06L209.76 222L209.71 221.94L209.66 221.88L209.62 221.83L209.57 221.77L209.52 221.71L209.48 221.66L209.43 221.6L209.38 221.54L209.34 221.49L209.29 221.43L209.24 221.38L209.2 221.32L209.15 221.27L209.1 221.22L209.05 221.16L209.01 221.11L208.96 221.06L208.91 221L208.86 220.95L208.81 220.9L208.77 220.85L208.72 220.8L208.67 220.75L208.62 220.69L208.57 220.64L208.53 220.59L208.48 220.54L208.43 220.49L208.38 220.44L208.26 220.33L208.15 220.21L208.03 220.1L207.91 219.99L207.79 219.88L207.68 219.77L207.56 219.66L207.43 219.56L207.31 219.45L207.19 219.35L207.07 219.25L206.94 219.15L206.82 219.06L206.69 218.96L206.57 218.87L206.44 218.78L206.31 218.69L206.18 218.6L206.05 218.51L205.92 218.43L205.78 218.34L205.65 218.26L205.51 218.18L205.38 218.1L205.24 218.03L205.1 217.95L204.96 217.88L204.82 217.81L204.68 217.74L204.53 217.67L204.39 217.6L204.24 217.53L204.1 217.47L203.95 217.41L203.8 217.35L203.64 217.29L203.49 217.23L203.34 217.17L203.18 217.12L203.02 217.07L202.92 217.03L202.82 217L202.71 216.97L202.61 216.94L202.5 216.91L202.4 216.88L202.29 216.85L202.18 216.83L202.07 216.8L201.96 216.77L201.85 216.75L201.74 216.72L201.62 216.7L201.51 216.67L201.4 216.65L201.28 216.63L201.16 216.61L201.04 216.59L200.93 216.57L200.81 216.55L200.68 216.53L200.56 216.52L200.44 216.5L200.31 216.48L200.19 216.47L200.06 216.46L199.94 216.44L199.81 216.43L199.68 216.42L199.54 216.41L199.41 216.4L199.28 216.39L199.14 216.38L199.01 216.38L198.87 216.37L198.73 216.37L198.59 216.36L198.45 216.36L198.31 216.36L198.16 216.36L198.09 216.36L198.01 216.36L197.94 216.36L197.86 216.36L197.79 216.36L197.71 216.37L197.63 216.37L197.56 216.37L197.48 216.38L197.4 216.38L197.32 216.38L197.24 216.39L197.16 216.39L197.08 216.4L197 216.4L196.92 216.41L196.84 216.41L196.76 216.42L196.67 216.43L196.59 216.43L196.51 216.44L196.42 216.45L196.34 216.46L196.26 216.47L196.17 216.47L196.09 216.48L196 216.49L195.92 216.5L195.83 216.51L195.74 216.52L195.66 216.53L195.57 216.54L195.48 216.55L195.4 216.56L195.31 216.57L195.22 216.59L195.13 216.6L195.05 216.61L194.96 216.62L194.87 216.63L194.85 216.64L194.84 216.64L194.83 216.64L194.81 216.64L194.8 216.64L194.78 216.65L194.77 216.65L194.75 216.65L194.73 216.65L194.71 216.65L194.68 216.66L194.51 216.68L194.34 216.71L194.16 216.73L193.99 216.76L193.82 216.79L193.64 216.82L193.46 216.86L193.28 216.89L193.1 216.93L192.92 216.96L192.74 217L192.56 217.04L192.37 217.08L192.19 217.12L192 217.16L191.81 217.21L191.62 217.25L191.43 217.3L191.24 217.35L191.04 217.4L190.85 217.45L190.65 217.5L190.45 217.55L190.25 217.61L190.05 217.67L189.85 217.73L189.64 217.79L189.44 217.85L189.23 217.91L189.02 217.98L188.81 218.04L188.6 218.11L188.39 218.18L188.17 218.25L187.96 218.33L187.74 218.4L187.52 218.48L187.3 218.56L187.08 218.64L186.86 218.72L186.84 218.84L186.83 218.89L186.81 219.01L186.79 219.07L186.77 219.19L186.76 219.25L186.75 219.31L186.74 219.37L186.73 219.43L186.71 219.5L186.7 219.56L186.69 219.62L186.68 219.68L186.67 219.75L186.66 219.81L186.64 219.87L186.63 219.94L186.62 220L186.61 220.06L186.6 220.13L186.58 220.19L186.57 220.26L186.56 220.32L186.54 220.39L186.53 220.46L186.52 220.52L186.51 220.59L186.49 220.66L186.48 220.72L186.47 220.79L186.45 220.86L186.44 220.93L186.43 221L186.41 221.07L186.4 221.14L186.38 221.21L186.37 221.28L186.36 221.32L186.35 221.36L186.34 221.41L186.33 221.45L186.32 221.5L186.31 221.54L186.3 221.59L186.29 221.64L186.28 221.68L186.27 221.73L186.26 221.78L186.25 221.82L186.24 221.87L186.23 221.92L186.22 221.96L186.21 222.01L186.2 222.06L186.19 222.11L186.18 222.16L186.16 222.25L186.15 222.3L186.14 222.35L186.12 222.45L186.07 222.65L186.05 222.74L186.03 222.84L186.01 222.94L186 222.99L185.99 223.04L185.98 223.09L185.97 223.14L185.95 223.19L185.95 223.21L185.94 223.24L185.94 223.27L185.93 223.29L185.92 223.35L185.91 223.37L185.9 223.42L185.89 223.48L185.88 223.53L185.86 223.63L185.84 223.71L185.83 223.76L185.82 223.81L185.81 223.87L185.8 223.89L185.8 223.92L185.79 223.95L185.79 223.97L185.78 224L185.77 224.03L185.77 224.05L185.76 224.08L185.75 224.11L185.75 224.14L185.74 224.17L185.74 224.19L185.73 224.22L185.72 224.25L185.71 224.31L185.69 224.38L185.68 224.44L185.66 224.51L185.65 224.57L185.63 224.64L185.62 224.71L185.6 224.77L185.59 224.84L185.57 224.9L185.55 224.97L185.54 225.04L185.52 225.11L185.51 225.17L185.49 225.24L185.47 225.31L185.46 225.38L185.44 225.44L185.42 225.51L185.41 225.58L185.39 225.65L185.37 225.72L185.36 225.79L185.34 225.86L185.32 225.93L185.3 226L185.29 226.07L185.27 226.14L185.25 226.21L185.23 226.28L185.22 226.35L185.2 226.42L185.18 226.49L185.16 226.56L185.15 226.63L185.13 226.7L185.11 226.77L185.09 226.84L185.07 226.91L185.06 226.98L185.05 227.02L185.04 227.05L185.03 227.09L185.03 227.11L185.02 227.12L185.02 227.14L185.02 227.16L185.01 227.18L185 227.21L185 227.23L185 227.25L184.99 227.28L184.98 227.3L184.98 227.33L184.97 227.37L184.96 227.4L184.94 227.46L184.93 227.51L184.91 227.6L184.89 227.65L184.89 227.69L184.87 227.77L184.85 227.84L184.83 227.92L184.81 227.99L184.79 228.07L184.77 228.14L184.75 228.22L184.73 228.3L184.71 228.37L184.69 228.45L184.67 228.53L184.65 228.61L184.63 228.68L184.6 228.76L184.58 228.84L184.56 228.92L184.54 229L184.52 229.08L184.5 229.15L184.48 229.23L184.46 229.31L184.43 229.39L184.41 229.47L184.39 229.55L184.37 229.63L184.35 229.71L184.33 229.79L184.3 229.87L184.28 229.95L184.26 230.03L184.24 230.11L184.21 230.19L184.19 230.27L184.17 230.35L184.15 230.43L184.12 230.51L184.1 230.6L184.08 230.68L184.06 230.76L184.03 230.84L184.03 230.86L184.02 230.87L184.02 230.89L184.01 230.93L184 230.95L184 230.96L183.99 230.98L183.99 231L183.98 231.02L183.98 231.04L183.97 231.05L183.96 231.09L183.96 231.11L183.95 231.14L183.94 231.18L183.91 231.28L183.9 231.3L183.89 231.34L183.89 231.35L183.88 231.37L183.88 231.39L183.87 231.43L183.86 231.44L183.86 231.46L183.85 231.48L183.85 231.5L183.84 231.52L183.84 231.54L183.83 231.55L183.81 231.63L183.79 231.71L183.76 231.8L183.74 231.88L183.72 231.96L183.69 232.04L183.67 232.12L183.64 232.2L183.62 232.28L183.6 232.36L183.57 232.45L183.55 232.53L183.52 232.61L183.5 232.69L183.47 232.78L183.45 232.86L183.42 232.94L183.4 233.03L183.37 233.11L183.35 233.19L183.32 233.28L183.29 233.36L183.27 233.45L183.24 233.53L183.22 233.62L183.19 233.7L183.17 233.78L183.14 233.87L183.11 233.95L183.09 234.04L183.06 234.12L183.03 234.21L183.01 234.3L182.98 234.38L182.95 234.47L182.93 234.55L182.9 234.64L182.87 234.72L182.85 234.81L182.82 234.89L182.81 234.92L182.81 234.94L182.8 234.97L182.79 234.99L182.78 235.01L182.77 235.06L182.76 235.09L182.75 235.11L182.74 235.16L182.73 235.2L182.71 235.25L182.68 235.37L182.66 235.41L182.65 235.46L182.64 235.51L182.63 235.53L182.61 235.58L182.61 235.6L182.6 235.63L182.59 235.65L182.58 235.67L182.58 235.7L182.57 235.72L182.56 235.75L182.55 235.77L182.55 235.8L182.54 235.82L182.53 235.84L182.5 235.93L182.48 236.02L182.45 236.1L182.42 236.19L182.39 236.27L182.37 236.36L182.34 236.45L182.31 236.53L182.28 236.62L182.25 236.71L182.22 236.79L182.2 236.88L182.17 236.97L182.14 237.06L182.11 237.15L182.08 237.23L182.05 237.32L182.02 237.41L181.99 237.5L181.96 237.59L181.93 237.68L181.9 237.77L181.87 237.85L181.84 237.94L181.81 238.03L181.78 238.12L181.75 238.21L181.72 238.3L181.69 238.39L181.66 238.48L181.63 238.57L181.6 238.66L181.57 238.75L181.54 238.84L181.41 239.2L181.38 239.29L181.35 239.38L181.34 239.41L181.33 239.44L181.32 239.47L181.31 239.5L181.3 239.52L181.29 239.55L181.28 239.58L181.27 239.61L181.26 239.64L181.25 239.67L181.24 239.69L181.23 239.72L181.22 239.75L181.2 239.8L181.2 239.83L181.18 239.89L181.17 239.92L181.15 239.97L181.14 240L181.12 240.06L181.1 240.11L181.08 240.17L181.05 240.25L180.99 240.45L180.97 240.51L180.93 240.6L180.9 240.69L180.87 240.78L180.84 240.86L180.81 240.95L180.78 241.04L180.75 241.13L180.71 241.22L180.68 241.31L180.65 241.4L180.62 241.49L180.58 241.58L180.55 241.67L180.52 241.77L180.49 241.86L180.45 241.95L180.42 242.04L180.39 242.13L180.35 242.22L180.32 242.31L180.28 242.41L180.25 242.5L180.22 242.59L180.18 242.68L180.15 242.78L180.11 242.87L180.08 242.96L180.05 243.05L180.01 243.15L179.98 243.24L179.94 243.33L179.91 243.42L179.87 243.52L179.84 243.61L179.8 243.7L179.77 243.8L179.73 243.89L179.7 243.98L179.66 244.07L179.63 244.17L179.62 244.2L179.6 244.24L179.58 244.31L179.57 244.34L179.54 244.41L179.52 244.48L179.43 244.72L179.4 244.79L179.39 244.83L179.36 244.9L179.34 244.97L179.33 245L179.31 245.04L179.3 245.07L179.29 245.1L179.28 245.14L179.26 245.17L179.25 245.21L179.24 245.24L179.22 245.28L179.21 245.31L179.2 245.35L179.18 245.38L179.17 245.42L179.16 245.45L179.14 245.49L179.13 245.53L179.12 245.56L179.08 245.65L179.05 245.74L179.01 245.84L178.98 245.93L178.94 246.02L178.9 246.11L178.87 246.2L178.83 246.3L178.79 246.39L178.76 246.48L178.72 246.58L178.68 246.67L178.65 246.76L178.61 246.86L178.57 246.95L178.53 247.04L178.5 247.14L178.46 247.23L178.42 247.33L178.38 247.42L178.34 247.51L178.31 247.61L178.27 247.7L178.23 247.8L178.19 247.89L178.15 247.99L178.11 248.08L178.08 248.18L178.04 248.27L178 248.37L177.88 248.66L177.84 248.75L177.8 248.85L177.76 248.94L177.73 249.04L177.69 249.14L177.65 249.23L177.61 249.33L177.59 249.37L177.58 249.41L177.56 249.45L177.54 249.49L177.53 249.53L177.51 249.57L177.49 249.61L177.48 249.65L177.46 249.69L177.45 249.73L177.41 249.81L177.35 249.98L177.32 250.06L177.28 250.14L177.27 250.18L177.25 250.22L177.22 250.3L177.2 250.34L177.19 250.38L177.17 250.42L177.15 250.46L177.14 250.5L177.12 250.54L177.1 250.58L177.09 250.62L177.07 250.66L177.05 250.71L177.04 250.75L177.02 250.79L177 250.83L176.98 250.87L176.97 250.91L176.95 250.95L176.91 251.05L176.87 251.14L176.83 251.24L176.79 251.33L176.75 251.43L176.71 251.52L176.67 251.62L176.63 251.71L176.59 251.81L176.55 251.9L176.51 252L176.46 252.1L176.42 252.19L176.38 252.29L176.34 252.39L176.3 252.48L176.26 252.58L176.21 252.68L176.17 252.77L176.13 252.87L176.09 252.97L176.04 253.06L176 253.16L175.96 253.26L175.92 253.35L175.87 253.45L175.83 253.55L175.79 253.65L175.75 253.75L175.7 253.84L175.66 253.94L175.49 254.33L175.44 254.43L175.4 254.53L175.36 254.63L175.31 254.72L175.27 254.82L175.25 254.87L175.23 254.92L175.21 254.96L175.19 255.01L175.17 255.05L175.14 255.1L175.12 255.15L175.1 255.19L175.08 255.24L175.06 255.29L175.04 255.33L175.02 255.38L175 255.42L174.98 255.47L174.96 255.52L174.94 255.56L174.92 255.61L174.9 255.66L174.88 255.7L174.86 255.75L174.8 255.89L174.76 255.98L174.74 256.02L174.72 256.07L174.7 256.12L174.68 256.16L174.66 256.21L174.63 256.26L174.61 256.3L174.59 256.35L174.57 256.4L174.55 256.44L174.53 256.49L174.51 256.54L174.49 256.58L174.47 256.63L174.45 256.68L174.4 256.77L174.36 256.87L174.31 256.97L174.27 257.06L174.22 257.16L174.18 257.26L174.13 257.35L174.09 257.45L174.04 257.55L174 257.65L173.95 257.74L173.91 257.84L173.86 257.94L173.81 258.04L173.77 258.14L173.72 258.24L173.67 258.34L173.63 258.43L173.58 258.53L173.53 258.63L173.49 258.73L173.44 258.83L173.39 258.93L173.34 259.03L173.3 259.13L173.25 259.23L173.2 259.33L173.15 259.43L173.11 259.53L173.06 259.63L173.01 259.73L172.96 259.83L172.92 259.93L172.87 260.03L172.82 260.13L172.68 260.43L172.58 260.63L172.56 260.68L172.53 260.73L172.51 260.78L172.48 260.83L172.46 260.88L172.43 260.93L172.41 260.99L172.38 261.04L172.36 261.09L172.33 261.14L172.31 261.19L172.28 261.24L172.26 261.3L172.19 261.45L172.14 261.55L172.11 261.6L172.09 261.66L172.06 261.71L172.04 261.76L172.01 261.81L171.99 261.86L171.96 261.91L171.94 261.97L171.92 262.02L171.89 262.07L171.86 262.12L171.84 262.17L171.81 262.23L171.79 262.28L171.76 262.33L171.74 262.38L171.71 262.43L171.69 262.49L171.66 262.54L171.63 262.59L171.61 262.64L171.58 262.7L171.53 262.79L171.48 262.89L171.43 262.99L171.38 263.09L171.33 263.19L171.28 263.29L171.23 263.39L171.18 263.49L171.13 263.59L171.08 263.69L171.03 263.79L170.98 263.89L170.93 263.99L170.88 264.09L170.83 264.19L170.78 264.29L170.73 264.4L170.67 264.5L170.62 264.6L170.57 264.7L170.52 264.8L170.47 264.9L170.41 265L170.36 265.11L170.31 265.21L170.26 265.31L170.21 265.41L170.15 265.51L170.1 265.61L170.05 265.72L170 265.82L169.94 265.92L169.89 266.02L169.84 266.12L169.78 266.22L169.73 266.32L169.68 266.43L169.63 266.53L169.57 266.63L169.52 266.73L169.49 266.79L169.4 266.96L169.31 267.12L169.26 267.24L169.2 267.35L169.11 267.52L169.02 267.69L168.96 267.8L168.88 267.97L168.82 268.08L168.76 268.2L168.7 268.31L168.64 268.42L168.61 268.48L168.55 268.6L168.52 268.65L168.46 268.77L168.43 268.83L168.37 268.95L168.34 269L168.28 269.11L168.23 269.21L168.17 269.31L168.12 269.41L168.07 269.51L168.01 269.61L167.96 269.71L167.9 269.81L167.85 269.92L167.79 270.02L167.73 270.12L167.68 270.22L167.62 270.32L167.57 270.42L167.51 270.53L167.45 270.63L167.4 270.73L167.34 270.83L167.29 270.94L167.23 271.04L167.17 271.14L167.11 271.24L167.06 271.35L167 271.45L166.94 271.55L166.89 271.66L166.83 271.76L166.77 271.86L166.71 271.97L166.66 272.07L166.6 272.17L166.54 272.28L166.48 272.38L166.43 272.48L166.37 272.59L166.31 272.69L166.19 272.9L166.14 273L166.08 273.11L166.01 273.23L165.97 273.29L165.94 273.36L165.87 273.48L165.84 273.54L165.8 273.6L165.77 273.67L165.73 273.73L165.7 273.79L165.66 273.85L165.63 273.91L165.59 273.98L165.56 274.04L165.53 274.1L165.49 274.16L165.46 274.22L165.42 274.29L165.39 274.35L165.35 274.41L165.32 274.47L165.28 274.53L165.25 274.6L165.21 274.66L165.18 274.72L165.14 274.78L165.11 274.84L165.07 274.91L165.04 274.97L165 275.03L164.97 275.09L164.93 275.15L164.89 275.22L164.86 275.28L164.82 275.34L164.79 275.4L164.75 275.47L164.71 275.53L164.68 275.59L164.62 275.7L164.56 275.8L164.5 275.9L164.44 276L164.38 276.11L164.32 276.21L164.26 276.31L164.2 276.42L164.14 276.52L164.08 276.62L164.02 276.73L163.96 276.83L163.9 276.93L163.83 277.04L163.77 277.14L163.71 277.24L163.65 277.35L163.59 277.45L163.53 277.55L163.46 277.66L163.4 277.76L163.34 277.87L163.28 277.97L163.21 278.07L163.15 278.18L163.09 278.28L163.03 278.38L162.96 278.49L162.9 278.59L162.77 278.8L162.71 278.9L162.65 279.01L162.59 279.11L162.52 279.22L162.46 279.32L162.4 279.43L162.34 279.53L162.27 279.64L162.21 279.74L162.09 279.94L162.01 280.08L161.97 280.14L161.93 280.21L161.89 280.28L161.85 280.34L161.81 280.41L161.77 280.48L161.73 280.55L161.69 280.61L161.65 280.68L161.61 280.75L161.57 280.81L161.53 280.88L161.49 280.95L161.45 281.01L161.41 281.08L161.37 281.15L161.33 281.21L161.29 281.28L161.25 281.35L161.21 281.41L161.17 281.48L161.13 281.55L161.09 281.61L161.05 281.68L161.01 281.75L160.97 281.81L160.92 281.88L160.88 281.95L160.84 282.02L160.8 282.08L160.76 282.15L160.72 282.22L160.68 282.28L160.64 282.35L160.59 282.42L160.53 282.52L160.46 282.63L160.4 282.73L160.33 282.83L160.27 282.94L160.2 283.04L160.14 283.15L160.07 283.25L160.01 283.36L159.94 283.46L159.87 283.56L159.81 283.67L159.74 283.77L159.67 283.88L159.61 283.98L159.54 284.09L159.47 284.19L159.4 284.3L159.34 284.4L159.27 284.51L159.2 284.61L159.13 284.72L159.07 284.82L159 284.93L158.93 285.03L158.86 285.14L158.79 285.24L158.73 285.35L158.66 285.45L158.59 285.56L158.52 285.66L158.45 285.77L158.38 285.87L158.31 285.98L158.25 286.09L158.18 286.19L158.11 286.3L158.04 286.4L157.97 286.51L157.9 286.61L157.86 286.68L157.81 286.75L157.76 286.82L157.72 286.9L157.67 286.97L157.63 287.04L157.58 287.11L157.49 287.25L157.35 287.46L157.26 287.6L157.21 287.67L157.17 287.75L157.07 287.89L157.03 287.96L156.98 288.03L156.94 288.1L156.89 288.17L156.84 288.24L156.8 288.31L156.75 288.39L156.7 288.46L156.66 288.53L156.61 288.6L156.56 288.67L156.52 288.74L156.47 288.81L156.42 288.88L156.38 288.96L156.33 289.03L156.28 289.1L156.24 289.17L156.19 289.24L156.14 289.31L156.1 289.38L156.05 289.46L155.98 289.56L155.91 289.67L155.84 289.77L155.77 289.88L155.69 289.98L155.62 290.09L155.55 290.2L155.48 290.3L155.41 290.41L155.33 290.51L155.26 290.62L155.19 290.72L155.12 290.83L155.04 290.94L154.97 291.04L154.9 291.15L154.83 291.25L154.75 291.36L154.68 291.47L154.61 291.57L154.53 291.68L154.46 291.79L154.38 291.89L154.31 292L154.24 292.1L154.16 292.21L154.09 292.32L154.02 292.42L153.94 292.53L153.87 292.64L153.64 292.96L153.57 293.06L153.5 293.17L153.42 293.28L153.35 293.38L153.27 293.49L153.2 293.6L153.12 293.71L153.07 293.78L153.02 293.85L152.97 293.93L152.81 294.15L152.71 294.3L152.66 294.37L152.6 294.45L152.55 294.52L152.5 294.6L152.45 294.67L152.4 294.74L152.34 294.82L152.29 294.89L152.24 294.97L152.19 295.04L152.13 295.12L152.08 295.19L152.03 295.27L151.98 295.34L151.93 295.41L151.87 295.49L151.82 295.56L151.77 295.64L151.71 295.71L151.66 295.79L151.61 295.86L151.56 295.94L151.5 296.01L151.45 296.09L151.4 296.16L151.34 296.24L151.29 296.31L151.24 296.39L151.18 296.47L151.13 296.54L151.07 296.62L151.02 296.69L150.94 296.8L150.87 296.91L150.79 297.01L150.71 297.12L150.63 297.23L150.56 297.33L150.48 297.44L150.4 297.55L150.32 297.66L150.24 297.76L150.17 297.87L150.09 297.98L150.01 298.09L149.93 298.19L149.85 298.3L149.77 298.41L149.69 298.52L149.61 298.63L149.53 298.73L149.45 298.84L149.37 298.95L149.29 299.06L149.21 299.17L149.13 299.27L149.05 299.38L148.97 299.49L148.89 299.6L148.81 299.71L148.73 299.82L148.65 299.92L148.57 300.03L148.49 300.14L148.41 300.25L148.33 300.36L148.25 300.46L148.17 300.57L148.09 300.68L148.01 300.79L147.93 300.9L147.85 301L147.81 301.06L147.77 301.11L147.73 301.16L147.69 301.21L147.65 301.26L147.61 301.32L147.57 301.37L147.54 301.42L147.5 301.47L147.46 301.52L147.42 301.57L147.38 301.62L147.35 301.68L147.31 301.73L147.27 301.78L147.23 301.83L147.2 301.88L147.16 301.93L147.08 302.04L147.01 302.14L146.97 302.19L146.93 302.24L146.9 302.29L146.86 302.34L146.82 302.39L146.78 302.45L146.75 302.5L146.71 302.55L146.67 302.6L146.63 302.65L146.59 302.7L146.56 302.76L146.52 302.81L146.48 302.86L146.44 302.91L146.4 302.97L146.36 303.02L146.32 303.07L146.34 303.3L146.37 303.55L146.4 303.8L146.42 304.05L146.45 304.32L146.48 304.59L146.51 304.87L146.54 305.16L146.58 305.46L146.61 305.76L146.64 306.08L146.68 306.4L146.72 306.72L146.76 307.06L146.8 307.4L146.84 307.75L146.88 308.1L146.92 308.47L146.96 308.84L147.01 309.22L147.06 309.6L147.1 309.99L147.15 310.39L147.2 310.8L147.25 311.21L147.3 311.63L147.36 312.06L147.41 312.49L147.47 312.93L147.53 313.38L147.59 313.84L147.65 314.3L147.71 314.76L147.77 315.24L147.83 315.72L147.9 316.2L147.97 316.7L148.03 317.2L148.1 317.7L148.18 318.21L148.3 319.08L148.42 319.96L148.55 320.86L148.68 321.77L148.82 322.7L148.96 323.65L149.1 324.61L149.25 325.58L149.4 326.57L149.56 327.57L149.72 328.59L149.88 329.62L150.05 330.66L150.23 331.72L150.41 332.79L150.59 333.88L150.77 334.97L150.97 336.08L151.16 337.2L151.36 338.33L151.57 339.47L151.78 340.63L151.99 341.79L152.21 342.97L152.43 344.16L152.66 345.35L152.89 346.56L153.13 347.78L153.37 349L153.62 350.24L153.87 351.48L154.13 352.74L154.4 354L154.66 355.27L154.94 356.55L155.21 357.83L155.5 359.13L155.79 360.43L156.08 361.73L156.38 363.05L156.99 365.69L157.62 368.36L158.27 371.05L158.95 373.76L159.65 376.49L160.38 379.24L161.13 381.99L161.9 384.76L162.69 387.54L163.51 390.32L164.36 393.11L165.23 395.9L166.12 398.7L167.04 401.49L167.98 404.28L168.95 407.06L169.94 409.83L170.96 412.6L172 415.35L173.07 418.09L174.17 420.82L175.29 423.53L176.44 426.21L177.61 428.88L178.82 431.52L180.04 434.13L181.3 436.72L182.58 439.27L183.89 441.8L185.23 444.29L186.59 446.74L187.99 449.15L189.41 451.52L190.86 453.85L192.34 456.14L193.84 458.37L195.38 460.56L196.94 462.7L198.53 464.78L200.15 466.81L201.26 468.14L202.37 469.44L203.49 470.71L204.62 471.95L205.76 473.16L206.91 474.35L208.08 475.51L209.25 476.64L210.43 477.74L211.63 478.81L212.83 479.85L214.05 480.87L215.28 481.85L216.52 482.8L217.77 483.72L219.04 484.6L220.32 485.46L221.61 486.28L222.91 487.07L224.23 487.83L225.56 488.55L226.9 489.24L228.26 489.9L229.63 490.52L231.02 491.11L232.42 491.66L233.83 492.18L235.26 492.66L236.7 493.11L238.16 493.52L239.64 493.89L241.13 494.22L242.64 494.52L244.16 494.78L245.7 495L247.26 495.18L248.83 495.33L250.42 495.43L252.02 495.5L253.65 495.52L253.67 495.52L253.69 495.52L253.72 495.52L253.74 495.52L253.76 495.52L253.81 495.52L253.84 495.52L253.86 495.52L253.91 495.52L253.97 495.52L254.02 495.52L254.05 495.52L254.19 495.52L254.28 495.52L254.31 495.52L254.34 495.52L254.4 495.52L254.46 495.52L254.49 495.52L254.55 495.51L254.59 495.51L254.62 495.51L254.65 495.51L254.68 495.51L254.71 495.51L254.74 495.51L254.77 495.51L396.35 495.51L398.41 495.46L400.46 495.32L402.5 495.08L404.53 494.75L406.56 494.32L408.57 493.81L410.57 493.2L412.57 492.49L414.55 491.69L416.52 490.8L418.49 489.82L420.44 488.74L422.39 487.57L424.32 486.3L426.25 484.94L428.16 483.49L430.07 481.95L431.96 480.31L433.85 478.58L435.73 476.75L437.59 474.83L439.45 472.82L441.3 470.71L443.13 468.51L444.96 466.22L446.78 463.84L448.59 461.36L450.38 458.79L452.17 456.12L453.95 453.36L455.72 450.51L457.48 447.56L459.23 444.52L460.97 441.39L462.7 438.16L464.42 434.84L466.13 431.43L467.83 427.92L469.52 424.32L471.2 420.63L471.18 420.63L471.18 326.89L470.63 327.49L470.06 328.08L469.48 328.66L468.89 329.23L468.29 329.78L467.67 330.32L467.05 330.85L466.42 331.37L465.77 331.87L465.12 332.36L464.46 332.84L463.78 333.3L463.1 333.75L462.41 334.19L461.71 334.61L461 335.02L460.28 335.41L459.55 335.79L458.82 336.15L458.08 336.5L457.33 336.83L456.57 337.15L455.8 337.45L455.03 337.74L454.25 338.01L453.47 338.26L452.67 338.5L451.87 338.72L451.07 338.93L450.26 339.12L449.44 339.29L448.62 339.44L447.79 339.58L446.96 339.7L446.12 339.8L445.28 339.88L444.43 339.95L443.58 339.99L442.72 340.02L441.86 340.03L441.64 340.03L441.49 340.03L441.36 340.03L441.23 340.03L441.1 340.03L440.97 340.03L440.83 340.02L440.7 340.02L440.57 340.02L440.44 340.01L440.31 340.01L440.17 340L440.04 340L439.91 339.99L439.78 339.99L439.64 339.98L439.51 339.98L439.38 339.97L439.24 339.96L439.11 339.95L438.98 339.94L438.84 339.93L438.71 339.92L438.57 339.91L438.44 339.9L438.31 339.89L438.17 339.88L438.04 339.87L437.9 339.85L437.77 339.84L437.63 339.82L437.5 339.81L437.36 339.79L437.23 339.78L437.09 339.76L436.96 339.74L436.82 339.73L436.69 339.71L436.55 339.69L436.42 339.67L436.28 339.65L435.66 339.56L435.04 339.45L434.43 339.34L433.81 339.22L433.21 339.09L432.6 338.95L432 338.8L431.41 338.64L430.82 338.48L430.23 338.3L429.65 338.12L429.07 337.93L428.5 337.73L427.93 337.52L427.37 337.3L426.81 337.07L426.25 336.84L425.7 336.6L425.16 336.35L424.62 336.09L424.08 335.83L423.55 335.55L423.02 335.27L422.5 334.98L421.99 334.69L421.48 334.39L420.97 334.08L420.47 333.76L419.98 333.44L419.49 333.1L419 332.77L418.52 332.42L418.05 332.07L417.58 331.71L417.12 331.35L416.66 330.98L416.21 330.6L415.77 330.22L415.33 329.83L414.89 329.43L414.46 330.6L413.98 331.75L413.48 332.88L412.94 333.99L412.37 335.07L411.77 336.14L411.14 337.19L410.47 338.21L409.78 339.21L409.06 340.18L408.31 341.14L407.53 342.06L406.73 342.97L405.9 343.84L405.05 344.69L404.17 345.52L403.27 346.31L402.34 347.08L401.39 347.82L400.42 348.53L399.43 349.22L398.42 349.87L397.38 350.49L396.33 351.08L395.26 351.64L394.18 352.17L393.07 352.66L391.95 353.12L390.82 353.55L389.67 353.94L388.5 354.3L387.32 354.62L386.13 354.91L384.93 355.16L383.71 355.37L382.49 355.55L381.25 355.68L380.01 355.78L378.76 355.84L377.49 355.86L377.36 355.86L377.22 355.86L377.08 355.86L376.95 355.86L376.81 355.86L376.67 355.85L376.53 355.85L376.4 355.85L376.26 355.84L376.12 355.84L375.98 355.83L375.84 355.83L375.7 355.82L375.56 355.82L375.43 355.81L375.29 355.8L375.15 355.79L375.01 355.79L374.87 355.78L374.73 355.77L374.59 355.76L374.45 355.75L374.31 355.74L374.17 355.73L374.03 355.71L373.89 355.7L373.75 355.69L373.61 355.68L373.47 355.66L373.33 355.65L373.19 355.63L373.05 355.62L372.91 355.6L372.77 355.59L372.63 355.57L372.49 355.55L372.35 355.54L372.21 355.52L372.07 355.5L371.92 355.48L370.62 355.28L369.33 355.03L368.05 354.74L366.8 354.42L365.56 354.05L364.34 353.65L363.14 353.21L361.96 352.73L360.8 352.22L359.66 351.68L358.55 351.1L357.45 350.48L356.38 349.84L355.33 349.16L354.31 348.45L353.31 347.71L352.34 346.94L351.39 346.15L350.47 345.32L349.58 344.47L348.71 343.59L347.87 342.69L347.06 341.76L346.28 340.81L345.53 339.83L344.81 338.83L344.12 337.81L343.46 336.77L342.84 335.7L342.25 334.62L341.69 333.52L341.16 332.4L340.67 331.26L340.22 330.11L339.8 328.94L339.41 327.75L339.07 326.56L338.76 325.34L338.48 324.12L338.25 322.88L338.22 322.71L338.19 322.54L338.17 322.37L338.14 322.21L338.11 322.04L338.09 321.87L338.06 321.7L338.04 321.53L338.02 321.36L337.99 321.19L337.97 321.02L337.95 320.85L337.93 320.68L337.91 320.51L337.89 320.34L337.88 320.17L337.86 320L337.84 319.83L337.83 319.65L337.81 319.48L337.8 319.31L337.78 319.14L337.77 318.97L337.76 318.8L337.75 318.62L337.74 318.45L337.73 318.28L337.72 318.11L337.71 317.94L337.7 317.76L337.7 317.59L337.69 317.42L337.69 317.25L337.68 317.07L337.68 316.9L337.67 316.73L337.67 316.56L337.67 316.39L337.67 316.21L337.67 316.04L337.67 315.9L337.67 315.77L337.67 315.63L337.67 315.49L337.67 315.35L337.68 315.22L337.68 315.08L337.68 314.94L337.68 314.8L337.69 314.67L337.69 314.53L337.7 314.39L337.7 314.25L337.71 314.12L337.72 313.98L337.72 313.84L337.73 313.7L337.74 313.57L337.75 313.43L337.76 313.29L337.77 313.15L337.78 313.01L337.79 312.88L337.8 312.74L337.81 312.6L337.82 312.46L337.83 312.32L337.85 312.19L337.86 312.05L337.87 311.91L337.89 311.77L337.9 311.63L337.92 311.5L337.94 311.36L337.95 311.22L337.97 311.08L337.99 310.95L338 310.81L338.02 310.67L338.04 310.53L375.01 43.06L375.02 42.98L375.03 42.9L375.04 42.82L375.05 42.73L375.06 42.65L375.07 42.57L375.08 42.49L375.09 42.41L375.1 42.33L375.11 42.24L375.12 42.16L375.12 42.08L375.13 42L375.14 41.92L375.15 41.83L375.15 41.75L375.16 41.67L375.17 41.59L375.17 41.51L375.18 41.42L375.18 41.34L375.19 41.26L375.19 41.18L375.2 41.09L375.2 41.01L375.21 40.93L375.21 40.85L375.21 40.76L375.22 40.68L375.22 40.6L375.22 40.52L375.23 40.43L375.23 40.35L375.23 40.27L375.23 40.18L375.24 40.1L375.24 40.02L375.24 39.94L375.24 39.85L375.24 39.77L375.23 38.92L375.18 38.07L375.1 37.23L374.99 36.4L374.86 35.57L374.69 34.76L374.5 33.95L374.27 33.15L374.02 32.37L373.74 31.59L373.44 30.83L373.11 30.07L372.75 29.34L372.37 28.61L371.97 27.9L371.53 27.2L371.08 26.52L370.6 25.86L370.1 25.21L369.58 24.59L369.03 23.97L368.47 23.38L367.88 22.81L367.27 22.26L366.65 21.73L366 21.22L365.33 20.73L364.65 20.27L363.95 19.83L363.23 19.41L362.49 19.02L361.74 18.65L360.97 18.31L360.19 18L359.39 17.72L358.57 17.46L357.75 17.23L356.9 17.03L356.05 16.86L355.18 16.73L355.1 16.71L355.02 16.7L354.93 16.69L354.85 16.68L354.77 16.67L354.68 16.66L354.6 16.65L354.52 16.64L354.44 16.64L354.35 16.63L354.27 16.62L354.19 16.61L354.11 16.6L354.03 16.6L353.94 16.59L353.86 16.58L353.78 16.57L353.7 16.57L353.62 16.56L353.53 16.56L353.45 16.55L353.37 16.55L353.29 16.54L353.21 16.54L353.13 16.53L353.05 16.53L352.97 16.52L352.88 16.52L352.8 16.52L352.72 16.51L352.64 16.51L352.56 16.51L352.48 16.51L352.4 16.5L352.32 16.5L352.24 16.5L352.16 16.5L352.08 16.5L352 16.5L351.92 16.5L351.06 16.51L350.22 16.56ZM390.83 187.65L390.17 187.7L389.51 187.76L388.86 187.85L388.21 187.95L387.57 188.08L386.93 188.22L386.3 188.38L385.67 188.55L385.05 188.74L384.44 188.95L383.83 189.18L383.23 189.43L382.64 189.68L382.05 189.96L381.48 190.25L380.91 190.56L380.35 190.88L379.8 191.22L379.26 191.57L378.73 191.94L378.21 192.32L377.7 192.71L377.21 193.12L376.72 193.54L376.24 193.98L375.78 194.43L375.33 194.89L374.89 195.36L374.47 195.85L374.05 196.34L373.66 196.85L373.27 197.38L372.9 197.91L372.55 198.45L372.21 199.01L371.88 199.57L371.57 200.15L371.28 200.73L371.27 200.75L371.26 200.76L371.25 200.78L371.25 200.79L371.24 200.81L371.23 200.83L371.22 200.84L371.22 200.86L371.21 200.87L371.2 200.89L371.2 200.91L371.19 200.92L371.18 200.94L371.18 200.96L371.17 200.97L371.17 200.99L371.16 201.01L371.15 201.02L371.15 201.04L371.14 201.06L371.13 201.09L371.12 201.11L371.11 201.14L371.11 201.16L371.1 201.19L371.09 201.21L371.08 201.22L371.08 201.24L371.07 201.26L371.07 201.27L371.06 201.29L371.05 201.3L371.05 201.32L371.04 201.34L371.03 201.35L371.03 201.37L371.02 201.39L370.95 201.53L370.89 201.68L370.83 201.83L370.76 201.98L370.7 202.13L370.64 202.28L370.58 202.43L370.52 202.58L370.46 202.73L370.4 202.88L370.35 203.03L370.29 203.18L370.24 203.34L370.18 203.49L370.13 203.64L370.08 203.8L370.03 203.95L369.98 204.11L369.93 204.27L369.88 204.42L369.83 204.58L369.79 204.74L369.74 204.9L369.7 205.05L369.66 205.21L369.62 205.37L369.58 205.53L369.54 205.69L369.5 205.86L369.46 206.02L369.43 206.18L369.39 206.34L369.36 206.51L369.33 206.67L369.3 206.84L369.27 207L369.24 207.17L369.22 207.33L369.19 207.5L369.17 207.67L365.87 231.09L359.45 276.72L354.37 312.84L354.36 312.92L354.35 313L354.34 313.08L354.33 313.17L354.32 313.25L354.31 313.33L354.3 313.41L354.29 313.49L354.28 313.57L354.28 313.65L354.27 313.73L354.26 313.81L354.25 313.89L354.24 313.98L354.24 314.06L354.23 314.14L354.22 314.22L354.22 314.3L354.21 314.38L354.21 314.45L354.2 314.53L354.2 314.61L354.19 314.69L354.19 314.77L354.18 314.85L354.18 314.93L354.17 315.01L354.17 315.09L354.17 315.17L354.17 315.25L354.16 315.32L354.16 315.4L354.16 315.48L354.16 315.56L354.16 315.64L354.15 315.72L354.15 315.79L354.15 315.87L354.15 315.95L354.15 316.03L354.15 316.13L354.15 316.23L354.15 316.34L354.16 316.44L354.16 316.54L354.16 316.64L354.16 316.74L354.17 316.85L354.17 316.95L354.17 317.05L354.18 317.15L354.18 317.25L354.19 317.35L354.19 317.45L354.2 317.55L354.21 317.66L354.21 317.76L354.22 317.86L354.23 317.96L354.24 318.06L354.25 318.16L354.26 318.26L354.27 318.36L354.28 318.46L354.29 318.56L354.3 318.66L354.31 318.76L354.32 318.86L354.33 318.95L354.35 319.05L354.36 319.15L354.37 319.25L354.39 319.35L354.4 319.45L354.42 319.55L354.43 319.65L354.45 319.75L354.47 319.85L354.48 319.95L354.5 320.05L354.5 320.06L354.52 320.1L354.52 320.13L354.53 320.15L354.53 320.16L354.54 320.17L354.54 320.19L354.54 320.2L354.55 320.22L354.55 320.23L354.55 320.25L354.56 320.26L354.56 320.27L354.7 320.98L354.87 321.69L355.05 322.4L355.26 323.09L355.49 323.78L355.74 324.45L356.01 325.12L356.3 325.78L356.61 326.43L356.94 327.07L357.29 327.69L357.66 328.31L358.04 328.91L358.45 329.5L358.87 330.08L359.31 330.65L359.76 331.2L360.23 331.74L360.72 332.26L361.23 332.77L361.75 333.27L362.29 333.74L362.84 334.2L363.4 334.65L363.98 335.08L364.58 335.49L365.19 335.88L365.81 336.25L366.45 336.61L367.1 336.95L367.76 337.26L368.43 337.56L369.12 337.83L369.81 338.09L370.52 338.32L371.24 338.53L371.97 338.72L372.71 338.89L373.46 339.03L374.22 339.15L374.3 339.16L374.38 339.17L374.47 339.18L374.55 339.19L374.63 339.2L374.71 339.21L374.79 339.22L374.87 339.23L374.95 339.24L375.03 339.24L375.12 339.25L375.2 339.26L375.28 339.27L375.36 339.27L375.44 339.28L375.52 339.28L375.61 339.29L375.69 339.3L375.77 339.3L375.85 339.31L375.94 339.31L376.02 339.32L376.1 339.32L376.18 339.32L376.26 339.33L376.35 339.33L376.43 339.33L376.51 339.34L376.59 339.34L376.68 339.34L376.76 339.34L376.84 339.35L376.92 339.35L377.01 339.35L377.09 339.35L377.17 339.35L377.25 339.35L377.34 339.35L377.42 339.35L377.5 339.35L378.34 339.34L379.17 339.3L380 339.22L380.82 339.12L381.63 338.98L382.43 338.82L383.23 338.63L384.01 338.42L384.79 338.17L385.55 337.9L386.31 337.61L387.05 337.28L387.78 336.94L388.49 336.57L389.19 336.17L389.88 335.75L390.55 335.31L391.21 334.84L391.85 334.35L392.47 333.84L393.08 333.31L393.67 332.76L394.24 332.19L394.79 331.59L395.31 330.98L395.82 330.35L396.31 329.7L396.78 329.04L397.22 328.35L397.64 327.65L398.03 326.93L398.41 326.2L398.75 325.45L399.07 324.68L399.37 323.9L399.63 323.11L399.87 322.3L400.08 321.48L400.27 320.64L400.42 319.8L400.42 319.78L400.42 319.77L400.43 319.76L400.43 319.75L400.43 319.74L400.43 319.72L400.44 319.71L400.44 319.7L400.44 319.69L400.44 319.68L400.45 319.66L400.45 319.65L400.45 319.64L400.46 319.62L400.47 319.59L400.47 319.58L400.48 319.56L400.49 319.52L400.49 319.5L400.5 319.47L400.5 319.46L400.51 319.45L400.51 319.44L400.51 319.42L400.52 319.41L400.52 319.4L400.52 319.39L400.52 319.37L400.53 319.36L400.53 319.35L400.53 319.34L400.53 319.32L400.53 319.31L402.46 305.65L403.59 297.53L412.94 231.01L415.31 214.17L415.32 214.09L415.33 214.01L415.34 213.92L415.35 213.84L415.36 213.76L415.37 213.68L415.37 213.6L415.38 213.51L415.39 213.43L415.4 213.35L415.41 213.27L415.42 213.19L415.42 213.1L415.43 213.02L415.44 212.94L415.45 212.86L415.45 212.78L415.46 212.69L415.46 212.61L415.47 212.53L415.48 212.45L415.48 212.36L415.49 212.28L415.49 212.2L415.5 212.12L415.5 212.03L415.5 211.95L415.51 211.87L415.51 211.79L415.51 211.7L415.52 211.62L415.52 211.54L415.52 211.46L415.52 211.37L415.53 211.29L415.53 211.21L415.53 211.13L415.53 211.04L415.53 210.96L415.53 210.88L415.51 210.02L415.47 209.18L415.39 208.34L415.28 207.51L415.15 206.68L414.98 205.86L414.78 205.06L414.56 204.26L414.31 203.47L414.03 202.7L413.73 201.93L413.4 201.18L413.04 200.44L412.66 199.72L412.25 199.01L411.82 198.31L411.37 197.63L410.89 196.97L410.39 196.32L409.87 195.69L409.32 195.08L408.76 194.49L408.17 193.92L407.56 193.37L406.93 192.84L406.29 192.33L405.62 191.84L404.94 191.38L404.24 190.94L403.52 190.52L402.78 190.13L402.03 189.77L401.26 189.43L400.48 189.12L399.68 188.83L398.87 188.58L398.04 188.35L397.2 188.15L396.34 187.98L395.48 187.85L395.39 187.83L395.31 187.82L395.23 187.81L395.14 187.8L395.06 187.79L394.98 187.78L394.9 187.77L394.81 187.76L394.73 187.75L394.65 187.74L394.56 187.73L394.48 187.72L394.4 187.71L394.32 187.71L394.23 187.7L394.15 187.69L394.07 187.68L393.99 187.68L393.91 187.67L393.82 187.67L393.74 187.66L393.66 187.65L393.58 187.65L393.5 187.64L393.41 187.64L393.33 187.64L393.25 187.63L393.17 187.63L393.09 187.63L393.01 187.62L392.93 187.62L392.84 187.62L392.76 187.62L392.68 187.61L392.6 187.61L392.52 187.61L392.44 187.61L392.36 187.61L392.28 187.61L392.17 187.61L391.5 187.62L390.83 187.65ZM216.13 305.12L216.11 305.22L216.08 305.33L216.06 305.43L216.03 305.53L216.01 305.64L215.99 305.74L215.96 305.84L215.94 305.94L215.91 306.04L215.89 306.14L215.85 306.33L215.81 306.52L215.77 306.71L215.73 306.9L215.69 307.08L215.65 307.27L215.61 307.45L215.57 307.64L215.53 307.82L215.5 308L215.46 308.19L215.42 308.37L215.38 308.6L215.33 308.83L215.29 309.07L215.25 309.3L215.21 309.52L215.17 309.75L215.13 309.98L215.09 310.2L215.05 310.42L215.01 310.64L214.98 310.86L214.94 311.08L214.91 311.24L214.89 311.41L214.86 311.58L214.83 311.74L214.8 311.91L214.78 312.07L214.75 312.24L214.73 312.4L214.7 312.56L214.68 312.72L214.65 312.88L214.63 313.04L214.61 313.24L214.58 313.44L214.56 313.64L214.53 313.84L214.51 314.03L214.49 314.23L214.47 314.42L214.45 314.61L214.43 314.8L214.41 315L214.39 315.19L214.37 315.38L214.36 315.52L214.34 315.67L214.33 315.81L214.31 315.96L214.3 316.1L214.28 316.25L214.27 316.39L214.25 316.53L214.24 316.67L214.23 316.81L214.22 316.95L214.21 317.09L214.2 317.25L214.19 317.41L214.18 317.56L214.17 317.72L214.16 317.87L214.16 318.03L214.15 318.18L214.15 318.33L214.14 318.48L214.14 318.63L214.14 318.78L214.13 318.92L214.13 319.05L214.12 319.17L214.12 319.3L214.12 319.43L214.11 319.55L214.1 319.68L214.1 319.81L214.1 319.93L214.09 320.06L214.09 320.18L214.09 320.3L214.09 320.42L214.11 321.38L214.15 322.28L214.21 323.13L214.28 323.93L214.36 324.68L214.45 325.38L214.56 326.03L214.68 326.64L214.8 327.2L214.93 327.72L215.07 328.2L215.21 328.65L215.21 328.65L215.21 328.65L215.21 328.66L215.21 328.67L215.22 328.68L215.22 328.69L215.22 328.7L215.22 328.7L215.22 328.7L215.24 328.75L215.26 328.79L215.28 328.84L215.31 328.92L215.33 328.96L215.34 329L215.36 329.04L215.38 329.09L215.39 329.13L215.41 329.17L215.42 329.21L215.52 329.44L215.61 329.66L215.71 329.87L215.8 330.06L215.9 330.24L215.99 330.41L216.08 330.57L216.17 330.71L216.25 330.85L216.34 330.97L216.42 331.08L216.49 331.18L216.51 331.21L216.53 331.24L216.55 331.26L216.58 331.29L216.6 331.32L216.63 331.35L216.65 331.37L216.68 331.4L216.71 331.44L216.74 331.47L216.77 331.5L216.8 331.53L221.19 332.81L216.18 304.92L216.16 305.02L216.13 305.12ZM448.59 223.6L447.95 223.63L447.32 223.67L446.69 223.73L446.07 223.81L445.45 223.91L444.83 224.02L444.22 224.15L443.61 224.3L443.01 224.46L442.42 224.64L441.83 224.84L441.25 225.05L440.67 225.27L440.1 225.51L439.54 225.77L438.99 226.04L438.44 226.32L437.9 226.62L437.37 226.93L436.85 227.26L436.34 227.6L435.83 227.95L435.34 228.32L434.86 228.7L434.38 229.09L433.92 229.5L433.46 229.92L433.02 230.34L432.59 230.79L432.17 231.24L431.76 231.7L431.36 232.18L430.98 232.66L430.6 233.16L430.24 233.67L429.9 234.19L429.56 234.71L429.24 235.25L428.94 235.8L428.92 235.82L428.91 235.85L428.9 235.87L428.88 235.89L428.87 235.91L428.85 235.94L428.84 235.96L428.83 235.98L428.81 236.01L428.8 236.03L428.78 236.05L428.74 236.12L428.71 236.17L428.68 236.21L428.67 236.23L428.65 236.26L428.64 236.28L428.63 236.3L428.61 236.32L428.6 236.35L428.58 236.37L428.57 236.39L428.56 236.42L428.54 236.44L428.53 236.46L428.52 236.49L428.5 236.51L428.49 236.53L428.48 236.56L428.46 236.58L428.45 236.6L428.44 236.63L428.42 236.65L428.41 236.68L428.4 236.7L428.39 236.73L428.36 236.79L428.33 236.85L428.3 236.91L428.27 236.98L428.24 237.04L428.21 237.1L428.18 237.17L428.15 237.23L428.12 237.29L428.09 237.36L428.06 237.42L428.04 237.48L428.01 237.55L427.98 237.61L427.95 237.67L427.92 237.74L427.9 237.8L427.87 237.86L427.84 237.93L427.82 237.99L427.79 238.05L427.76 238.12L427.74 238.18L427.71 238.24L427.68 238.31L427.66 238.37L427.63 238.44L427.61 238.5L427.58 238.57L427.56 238.63L427.54 238.69L427.51 238.76L427.49 238.82L427.46 238.89L427.44 238.95L427.42 239.02L427.4 239.08L427.37 239.15L427.35 239.21L427.33 239.27L427.29 239.38L427.25 239.49L427.22 239.59L427.18 239.7L427.15 239.81L427.11 239.91L427.08 240.02L427.04 240.13L427.01 240.23L426.98 240.34L426.95 240.45L426.91 240.56L426.88 240.67L426.85 240.78L426.82 240.88L426.79 240.99L426.76 241.1L426.74 241.21L426.71 241.32L426.68 241.43L426.65 241.54L426.63 241.65L426.6 241.76L426.58 241.87L426.55 241.98L426.53 242.09L426.51 242.2L426.48 242.31L426.46 242.42L426.44 242.53L426.42 242.65L426.4 242.76L426.38 242.87L426.36 242.98L426.34 243.09L426.32 243.2L426.31 243.31L426.29 243.42L426.27 243.53L426.26 243.64L423.56 262.83L418.75 297.02L418.74 297.1L418.73 297.18L418.72 297.26L418.71 297.35L418.7 297.43L418.69 297.51L418.68 297.59L418.67 297.67L418.66 297.75L418.65 297.83L418.64 297.91L418.63 297.99L418.63 298.07L418.62 298.15L418.61 298.23L418.61 298.31L418.6 298.39L418.59 298.47L418.59 298.55L418.58 298.63L418.58 298.71L418.57 298.79L418.57 298.87L418.56 298.94L418.56 299.02L418.55 299.1L418.55 299.18L418.55 299.26L418.54 299.33L418.54 299.41L418.54 299.49L418.54 299.57L418.53 299.64L418.53 299.72L418.53 299.8L418.53 299.87L418.53 299.95L418.53 300.03L418.53 300.1L418.53 300.18L418.53 300.28L418.53 300.38L418.53 300.49L418.53 300.59L418.53 300.69L418.54 300.79L418.54 300.9L418.54 301L418.54 301.1L418.55 301.2L418.55 301.31L418.56 301.41L418.56 301.51L418.57 301.61L418.57 301.71L418.58 301.82L418.59 301.92L418.59 302.02L418.6 302.12L418.61 302.23L418.62 302.33L418.63 302.43L418.64 302.53L418.65 302.63L418.66 302.74L418.67 302.84L418.68 302.94L418.7 303.04L418.71 303.14L418.72 303.25L418.74 303.35L418.75 303.45L418.77 303.55L418.78 303.66L418.8 303.76L418.81 303.86L418.83 303.96L418.85 304.07L418.87 304.17L418.89 304.27L418.89 304.28L418.89 304.29L418.89 304.3L418.89 304.31L418.89 304.31L418.9 304.33L418.9 304.34L418.9 304.35L418.91 304.37L418.91 304.38L418.92 304.4L418.93 304.44L418.94 304.45L418.94 304.47L418.95 304.48L418.95 304.49L418.95 304.49L418.95 304.5L418.95 304.51L418.96 304.53L418.96 304.55L418.97 304.57L418.97 304.59L418.97 304.61L418.98 304.63L418.98 304.65L418.99 304.67L418.99 304.69L419 304.71L419 304.73L419.01 304.75L419.01 304.77L419.02 304.79L419.02 304.8L419.03 304.82L419.03 304.84L419.04 304.86L419.05 304.9L419.07 304.98L419.08 305.01L419.09 305.03L419.09 305.05L419.1 305.07L419.11 305.09L419.11 305.11L419.12 305.13L419.12 305.15L419.13 305.17L419.13 305.19L419.14 305.21L419.14 305.23L419.15 305.25L419.15 305.27L419.15 305.29L419.32 305.98L419.5 306.65L419.7 307.33L419.93 307.99L420.17 308.65L420.43 309.3L420.71 309.94L421.01 310.56L421.32 311.18L421.66 311.79L422.01 312.39L422.38 312.98L422.77 313.56L423.17 314.12L423.59 314.68L424.02 315.22L424.47 315.74L424.94 316.26L425.42 316.76L425.92 317.24L426.43 317.71L426.96 318.17L427.5 318.61L428.06 319.03L428.63 319.44L429.21 319.83L429.8 320.21L430.41 320.56L431.03 320.9L431.66 321.22L432.3 321.53L432.96 321.81L433.63 322.07L434.31 322.32L434.99 322.54L435.69 322.74L436.4 322.92L437.12 323.08L437.85 323.22L438.59 323.33L438.67 323.35L438.75 323.36L438.83 323.37L438.91 323.38L438.99 323.39L439.07 323.4L439.16 323.41L439.24 323.42L439.32 323.43L439.4 323.44L439.48 323.44L439.56 323.45L439.65 323.46L439.73 323.47L439.81 323.47L439.89 323.48L439.97 323.49L440.06 323.49L440.14 323.5L440.22 323.5L440.3 323.51L440.39 323.51L440.47 323.52L440.55 323.52L440.63 323.53L440.71 323.53L440.8 323.53L440.88 323.54L440.96 323.54L441.05 323.54L441.13 323.55L441.21 323.55L441.29 323.55L441.38 323.55L441.46 323.55L441.54 323.55L441.63 323.55L441.71 323.56L441.79 323.56L441.88 323.56L442.62 323.55L443.35 323.51L444.08 323.45L444.81 323.37L445.53 323.27L446.25 323.14L446.96 322.99L447.66 322.82L448.35 322.63L449.04 322.41L449.72 322.18L450.39 321.92L451.05 321.65L451.7 321.35L452.35 321.04L452.98 320.7L453.6 320.35L454.21 319.98L454.81 319.59L455.39 319.18L455.97 318.76L456.53 318.31L457.08 317.85L457.61 317.38L458.13 316.89L458.63 316.38L459.12 315.85L459.59 315.32L460.05 314.76L460.49 314.19L460.91 313.61L461.32 313.02L461.71 312.41L462.08 311.78L462.43 311.15L462.76 310.5L463.07 309.84L463.36 309.17L463.63 308.48L463.88 307.79L463.92 307.68L463.95 307.57L463.99 307.47L464.02 307.36L464.06 307.25L464.09 307.15L464.12 307.04L464.15 306.93L464.19 306.83L464.22 306.72L464.25 306.61L464.28 306.51L464.31 306.4L464.34 306.29L464.37 306.19L464.4 306.08L464.43 305.98L464.45 305.87L464.48 305.76L464.51 305.66L464.53 305.55L464.56 305.44L464.58 305.34L464.61 305.23L464.63 305.12L464.65 305.01L464.67 304.91L464.7 304.8L464.72 304.69L464.74 304.59L464.76 304.48L464.78 304.37L464.8 304.26L464.81 304.16L464.83 304.05L464.85 303.94L464.86 303.83L464.88 303.72L464.9 303.62L464.91 303.51L466.38 293.06L470.23 265.65L471.03 260.03L472.41 250.15L472.42 250.07L472.43 249.99L472.44 249.91L472.45 249.82L472.46 249.74L472.47 249.66L472.48 249.58L472.49 249.5L472.5 249.41L472.51 249.33L472.52 249.25L472.52 249.17L472.53 249.08L472.54 249L472.55 248.92L472.55 248.84L472.56 248.76L472.57 248.67L472.57 248.59L472.58 248.51L472.58 248.43L472.59 248.34L472.59 248.26L472.6 248.18L472.6 248.09L472.61 248.01L472.61 247.93L472.62 247.85L472.62 247.76L472.62 247.68L472.63 247.6L472.63 247.51L472.63 247.43L472.63 247.35L472.64 247.26L472.64 247.18L472.64 247.1L472.64 247.01L472.64 246.93L472.64 246.85L472.63 246L472.58 245.15L472.5 244.31L472.39 243.48L472.26 242.65L472.09 241.84L471.89 241.03L471.67 240.23L471.42 239.45L471.14 238.67L470.84 237.91L470.51 237.16L470.15 236.42L469.77 235.69L469.36 234.98L468.93 234.29L468.48 233.61L468 232.95L467.5 232.3L466.98 231.67L466.43 231.06L465.86 230.47L465.28 229.9L464.67 229.35L464.04 228.82L463.4 228.31L462.73 227.82L462.05 227.36L461.35 226.92L460.63 226.5L459.89 226.11L459.14 225.74L458.37 225.4L457.59 225.09L456.79 224.81L455.98 224.55L455.15 224.32L454.31 224.12L453.46 223.96L452.59 223.82L452.58 223.82L452.5 223.81L452.42 223.79L452.33 223.78L452.25 223.77L452.17 223.76L452.08 223.75L452 223.74L451.92 223.73L451.83 223.72L451.75 223.72L451.67 223.71L451.59 223.7L451.5 223.69L451.42 223.68L451.34 223.68L451.26 223.67L451.17 223.66L451.09 223.66L451.01 223.65L450.93 223.64L450.85 223.64L450.76 223.63L450.68 223.63L450.6 223.62L450.52 223.62L450.44 223.62L450.36 223.61L450.27 223.61L450.19 223.61L450.11 223.6L450.03 223.6L449.95 223.6L449.87 223.6L449.79 223.6L449.71 223.59L449.63 223.59L449.55 223.59L449.47 223.59L449.39 223.59L449.3 223.59L449.23 223.59L448.59 223.6Z" id="a3b2uiZGT9"></path></defs><g><g><use xlink:href="#a3b2uiZGT9" opacity="1" fill="#000000" fill-opacity="1"></use><g><use xlink:href="#a3b2uiZGT9" opacity="1" fill-opacity="0" stroke="#000000" stroke-width="1" stroke-opacity="0"></use></g></g></g></svg>